<?xml version="1.0" standalone="no"?>
<!DOCTYPE svg PUBLIC "-//W3C//DTD SVG 20010904//EN"
 "http://www.w3.org/TR/2001/REC-SVG-20010904/DTD/svg10.dtd">
<svg version="1.0" xmlns="http://www.w3.org/2000/svg"
 width="100px" height="100px" viewBox="0 0 687.000000 757.000000"
 preserveAspectRatio="xMidYMid meet">

<g transform="translate(0.000000,757.000000) scale(0.100000,-0.100000)"
fill="#000000" stroke="none">
<path d="M5330 7524 c0 -13 -10 -15 -52 -12 -53 3 -53 3 -50 -24 3 -28 2 -28
-58 -28 -41 0 -66 -5 -76 -15 -9 -8 -28 -15 -44 -15 -19 0 -29 -6 -33 -20 -4
-16 -14 -20 -47 -20 -37 0 -42 -2 -37 -19 3 -12 -3 -27 -14 -37 -22 -20 -41
-9 -65 38 -18 35 -30 29 -45 -22 -7 -22 -15 -40 -18 -40 -4 0 -31 36 -61 80
-29 44 -58 79 -64 77 -6 -2 -13 -33 -16 -70 -6 -80 -15 -91 -58 -76 -17 6 -36
9 -41 7 -5 -1 1 -28 14 -58 39 -90 27 -142 -20 -90 -22 24 -35 17 -35 -18 0
-40 -14 -57 -30 -37 -23 28 -30 15 -30 -58 0 -72 -10 -97 -37 -97 -11 0 -10 7
2 31 16 29 15 31 -4 36 -16 4 -26 23 -41 77 -36 123 -50 141 -63 78 -4 -17
-14 -31 -25 -34 -13 -4 -22 -18 -26 -42 -4 -20 -10 -36 -14 -36 -4 0 -44 53
-89 118 -88 126 -127 170 -137 153 -4 -5 -10 -41 -15 -80 -5 -38 -13 -76 -17
-83 -5 -7 -11 -38 -14 -68 -6 -71 -17 -73 -156 -25 -58 20 -108 34 -111 31 -3
-3 26 -57 66 -120 39 -62 71 -119 71 -126 0 -8 -16 -9 -57 -4 l-56 7 76 -111
c42 -61 77 -114 77 -117 0 -4 -19 10 -42 30 l-43 36 -3 -30 c-4 -33 -22 -40
-42 -16 -22 27 -30 16 -30 -39 0 -52 -1 -55 -27 -58 -20 -2 -29 -9 -31 -25 -2
-13 -8 -23 -13 -23 -19 0 -8 66 25 139 53 119 56 143 14 105 -14 -14 -18 -14
-22 -3 -3 8 -18 60 -35 116 -39 127 -68 196 -80 189 -5 -4 -15 -38 -21 -77
-12 -72 -28 -92 -55 -69 -21 18 -32 5 -40 -46 -8 -58 -15 -75 -25 -69 -5 3
-25 58 -45 122 -43 136 -82 218 -120 253 l-28 25 7 -71 c3 -39 3 -74 0 -77 -4
-3 -15 -2 -26 4 -11 6 -22 8 -26 5 -3 -4 2 -46 11 -95 9 -48 17 -95 17 -104 0
-26 -23 -20 -44 12 -11 16 -38 38 -60 49 -23 11 -88 59 -146 107 -103 86 -145
114 -156 103 -3 -3 6 -50 20 -104 15 -54 26 -119 26 -144 0 -42 5 -53 50 -104
l50 -57 -17 -29 c-9 -16 -24 -31 -32 -32 -15 -3 -167 14 -233 26 -17 4 -28 1
-28 -6 0 -6 45 -57 101 -113 l101 -103 -61 -7 c-34 -4 -61 -10 -61 -15 0 -4
35 -38 78 -76 103 -90 103 -91 89 -118 -7 -11 -13 -22 -14 -24 -1 -2 -11 2
-24 8 -19 11 -21 10 -16 -3 3 -9 9 -33 13 -54 7 -37 6 -38 -13 -20 -32 28 -41
20 -48 -38 -4 -30 -11 -55 -15 -55 -5 0 -27 35 -50 78 -71 130 -189 277 -204
254 -3 -5 1 -32 9 -58 21 -70 20 -74 -15 -67 -18 3 -30 1 -30 -5 0 -6 14 -47
30 -92 17 -45 30 -86 30 -91 0 -24 -31 -4 -66 43 -43 57 -109 106 -229 167
-119 61 -122 58 -75 -50 17 -38 34 -89 39 -115 6 -30 17 -51 32 -62 68 -47 91
-110 49 -132 -11 -6 -57 -13 -102 -16 -46 -3 -99 -7 -118 -10 l-35 -6 28 -24
c40 -35 185 -118 290 -168 95 -44 142 -81 116 -90 -8 -3 -45 -9 -83 -15 -38
-6 -73 -14 -78 -19 -11 -11 83 -76 247 -170 66 -38 120 -76 120 -83 0 -8 -13
-15 -33 -17 -31 -3 -32 -5 -26 -38 10 -54 -12 -41 -46 27 -26 50 -34 59 -51
54 -13 -5 -31 2 -54 19 l-33 26 -9 -63 -8 -62 -34 50 c-73 107 -181 218 -198
202 -3 -3 2 -24 11 -47 20 -50 20 -50 -2 -50 -32 0 -32 -11 -2 -71 17 -32 30
-63 30 -69 0 -16 -38 -12 -80 10 -39 20 -201 70 -226 70 -25 0 -15 -35 28
-101 23 -35 47 -80 54 -99 9 -26 26 -44 70 -71 33 -20 60 -43 62 -52 4 -22
-45 -51 -114 -66 -66 -15 -65 -18 43 -75 61 -33 79 -47 82 -66 4 -34 17 -40
84 -40 58 0 127 -21 127 -38 0 -14 -20 -27 -73 -47 -26 -10 -46 -22 -44 -28 1
-5 45 -34 97 -64 105 -60 131 -83 123 -113 -7 -28 -22 -25 -59 11 -18 17 -37
28 -43 25 -6 -4 -11 -27 -11 -51 0 -24 -4 -46 -8 -49 -5 -3 -32 26 -61 64 -49
64 -132 140 -154 140 -9 0 -7 -19 9 -68 5 -18 2 -24 -14 -29 -21 -5 -21 -5 3
-54 30 -58 33 -84 8 -74 -69 30 -139 48 -208 53 l-80 5 54 -58 c29 -33 58 -70
64 -82 6 -13 32 -39 59 -58 26 -19 48 -42 48 -50 0 -18 -32 -38 -83 -55 -21
-6 -36 -17 -34 -23 2 -6 30 -25 63 -42 43 -22 60 -36 62 -54 4 -22 6 -23 55
-16 83 13 109 11 121 -7 8 -14 6 -22 -12 -38 -38 -36 -31 -44 81 -90 82 -35
94 -52 57 -85 -19 -17 -21 -17 -60 10 -23 16 -43 32 -46 37 -10 16 -34 8 -34
-11 0 -30 -10 -31 -78 -4 -35 14 -65 24 -67 21 -10 -10 45 -140 73 -173 18
-20 32 -39 32 -44 0 -24 -39 -35 -140 -40 -60 -3 -111 -9 -115 -12 -3 -4 31
-40 76 -82 l81 -75 -47 -27 c-54 -32 -49 -40 37 -50 53 -6 58 -9 58 -31 0 -23
3 -24 34 -18 50 9 58 0 39 -41 -20 -42 -28 -43 -84 -10 -47 26 -93 35 -71 13
17 -17 15 -45 -5 -56 -14 -9 -15 -14 -3 -41 19 -47 4 -56 -64 -36 -30 9 -67
15 -80 13 l-25 -3 33 -53 c20 -31 32 -61 29 -72 -3 -13 5 -29 27 -49 38 -34
35 -61 -7 -61 -15 0 -35 -5 -43 -10 -13 -8 -12 -13 4 -40 19 -33 14 -46 -19
-52 -12 -2 -21 -13 -23 -27 -4 -22 -6 -21 -53 25 l-48 48 -16 -37 c-8 -20 -15
-41 -15 -47 0 -6 -7 -25 -16 -41 -15 -30 -16 -30 -35 -13 -11 10 -28 31 -37
46 -9 16 -20 28 -24 28 -4 0 -19 -23 -35 -50 -17 -31 -34 -49 -43 -48 -8 2
-26 27 -39 56 -27 57 -43 63 -77 31 -29 -27 -39 -20 -58 39 -10 29 -28 57 -45
70 -23 17 -29 31 -35 78 -4 32 -16 73 -27 91 -17 27 -20 43 -14 79 3 25 1 68
-6 97 -10 46 -9 58 5 85 19 36 21 91 4 126 -9 22 -7 31 16 64 36 53 48 99 36
142 -15 51 -14 53 30 106 39 48 40 50 40 127 l0 79 50 57 c50 57 50 58 50 129
0 87 9 111 66 184 60 76 68 103 50 155 -14 39 -13 44 21 129 19 49 46 103 59
121 28 37 30 62 7 121 -14 37 -14 51 -4 100 7 31 24 77 38 101 30 51 33 103 9
148 -22 43 -20 104 5 183 l20 65 -31 59 c-28 54 -30 67 -30 160 l0 102 -40 53
c-28 37 -40 63 -40 86 0 50 -13 76 -68 139 -33 37 -54 72 -61 102 -12 48 -38
78 -89 106 -17 9 -46 40 -63 68 -23 37 -47 60 -86 82 -30 17 -57 38 -60 46 -4
8 -36 28 -72 44 -36 17 -75 38 -86 48 -11 9 -37 20 -58 23 -21 3 -58 16 -82
27 -36 17 -70 22 -187 27 -249 10 -355 -21 -484 -141 -62 -57 -74 -74 -111
-163 -24 -55 -49 -129 -58 -164 -26 -111 -15 -277 19 -266 6 1 43 67 83 145
81 161 119 215 172 241 44 23 136 41 205 41 84 -1 233 -58 280 -109 17 -17 35
-31 41 -31 13 0 135 -134 135 -148 0 -5 14 -29 32 -53 56 -77 86 -178 107
-369 8 -69 9 -114 3 -130 -5 -14 -17 -77 -27 -140 -9 -63 -25 -135 -36 -159
-10 -24 -19 -53 -19 -65 0 -12 -9 -40 -21 -61 -19 -36 -31 -66 -84 -206 -8
-20 -26 -54 -40 -74 -14 -21 -25 -46 -25 -55 0 -10 -8 -28 -19 -41 -10 -13
-28 -44 -41 -69 -12 -25 -33 -58 -46 -73 -13 -16 -27 -41 -31 -55 -3 -15 -21
-49 -40 -76 -18 -26 -33 -56 -33 -65 0 -9 -14 -33 -30 -53 -17 -20 -37 -53
-45 -72 -8 -19 -28 -57 -45 -83 -16 -26 -30 -54 -30 -62 0 -9 -18 -42 -40 -75
-22 -32 -40 -68 -40 -80 0 -12 -15 -53 -33 -91 -19 -39 -36 -89 -39 -112 -4
-24 -20 -64 -37 -90 -24 -35 -31 -58 -31 -94 0 -29 -9 -67 -25 -101 -19 -41
-25 -69 -25 -124 0 -41 -6 -87 -15 -107 -9 -23 -15 -68 -15 -120 0 -49 -6
-102 -16 -129 -14 -42 -14 -51 1 -108 12 -47 15 -85 10 -149 -5 -68 -3 -96 10
-131 9 -25 18 -84 20 -134 3 -77 8 -97 39 -160 19 -40 39 -100 45 -133 10 -62
32 -114 74 -177 13 -19 35 -61 47 -93 57 -142 262 -394 415 -508 39 -29 84
-67 100 -85 17 -17 59 -48 95 -67 36 -20 92 -53 125 -74 33 -20 90 -46 127
-58 36 -11 93 -33 126 -50 34 -17 82 -35 109 -41 26 -6 82 -24 124 -42 98 -39
119 -35 146 29 11 27 23 62 27 78 l6 30 -26 -30 -26 -30 6 55 c3 30 8 116 12
190 3 74 12 167 19 205 13 70 78 259 134 390 16 38 28 71 26 73 -1 2 -20 -4
-40 -13 -21 -8 -40 -13 -42 -11 -2 2 22 26 54 52 32 27 102 88 156 137 54 48
102 87 107 87 11 0 27 52 35 115 9 72 43 170 65 190 24 21 23 27 5 -110 -8
-60 -15 -147 -15 -192 0 -80 -9 -101 -28 -67 -12 22 -37 12 -92 -38 l-45 -41
54 5 53 5 -33 -25 c-54 -42 -154 -140 -148 -146 3 -3 22 -1 43 5 46 13 60 3
26 -19 -42 -28 -142 -126 -131 -130 5 -2 20 2 31 8 39 21 33 2 -17 -57 -53
-63 -93 -117 -93 -128 0 -4 30 21 67 54 37 33 69 59 71 57 6 -6 -16 -43 -78
-136 -65 -96 -94 -151 -104 -195 -6 -28 -4 -27 38 20 24 28 47 47 50 44 4 -3
-4 -30 -18 -60 -13 -30 -36 -88 -50 -129 l-27 -75 28 28 c16 15 32 27 35 27
11 0 -14 -74 -52 -155 -32 -67 -54 -95 -129 -168 -50 -48 -91 -92 -91 -97 0
-6 6 -13 14 -16 26 -10 6 -32 -118 -133 -66 -54 -128 -107 -137 -117 -8 -11
-31 -53 -49 -94 -29 -65 -34 -88 -38 -175 -2 -59 1 -112 7 -129 14 -34 28 -32
141 20 l75 35 155 -12 155 -12 40 -61 c54 -83 67 -83 146 -2 l63 66 180 0 180
0 77 -75 c48 -47 82 -73 91 -70 8 3 39 37 69 75 l54 70 97 0 97 0 58 -48 c78
-65 100 -77 119 -62 7 7 27 36 44 65 18 31 39 55 53 59 54 14 127 5 208 -26
76 -30 82 -31 94 -15 36 49 23 191 -25 295 -40 85 -131 175 -235 231 -123 65
-217 127 -247 160 -36 40 -46 78 -25 94 11 8 17 31 19 66 3 58 7 62 73 80 22
6 64 29 94 51 34 25 64 40 82 40 45 0 96 31 188 114 46 42 89 76 96 76 23 0
94 60 134 113 23 31 50 57 65 61 13 3 50 35 81 71 32 36 63 65 70 65 22 0 69
63 119 159 39 77 51 92 67 88 22 -6 44 30 74 121 9 29 23 56 30 58 7 3 52 -10
101 -28 68 -25 89 -37 89 -52 0 -13 15 -24 50 -38 28 -11 55 -24 60 -29 7 -7
-20 -38 -80 -94 -73 -68 -86 -84 -67 -85 28 0 28 -14 -1 -37 -30 -23 -87 -102
-87 -120 0 -7 7 -13 15 -13 20 0 19 -11 -10 -80 -19 -46 -25 -77 -25 -137 l0
-78 27 44 c26 43 26 44 35 20 5 -13 12 -67 15 -119 4 -76 1 -113 -16 -183 -26
-111 -27 -121 -1 -114 24 6 24 9 0 -44 -11 -24 -20 -60 -20 -80 0 -22 -14 -65
-35 -105 -19 -38 -35 -74 -35 -80 0 -6 -18 -34 -40 -64 -53 -71 -80 -146 -83
-230 -1 -38 1 -71 4 -74 3 -3 30 -2 59 4 70 13 256 12 722 -4 l387 -14 54 -31
c77 -44 102 -42 120 12 l14 42 119 0 c112 0 124 -2 206 -34 96 -37 114 -35
120 17 3 23 8 27 38 30 19 1 77 -4 129 -12 52 -8 101 -12 108 -9 16 6 17 86 2
169 -22 118 -86 197 -205 250 -32 14 -79 35 -104 46 -61 28 -89 36 -199 53
-108 18 -217 68 -256 119 -28 37 -44 101 -48 189 -2 56 2 69 26 103 58 82 55
80 79 65 19 -12 24 -11 41 10 11 13 43 72 73 131 34 68 61 109 73 113 21 6 26
24 35 127 3 41 19 89 60 175 47 101 57 131 62 196 7 76 7 77 32 70 24 -6 25
-5 17 43 -11 81 -125 344 -167 391 -22 24 -17 43 12 43 10 0 22 5 25 10 8 12
-13 39 -116 152 -43 47 -79 90 -79 93 0 4 14 5 30 3 20 -3 30 0 30 8 0 7 -48
66 -107 130 l-107 117 44 -7 43 -7 -25 33 c-14 18 -78 73 -142 121 -80 61
-120 98 -130 120 -12 30 -76 83 -243 205 -32 22 -33 25 -33 98 0 40 4 74 9 74
4 0 39 -14 77 -31 49 -23 89 -33 139 -36 49 -4 74 -10 83 -22 18 -23 130 -19
206 8 35 12 69 18 87 14 23 -4 43 3 87 30 41 25 65 34 84 30 15 -3 56 5 91 16
l65 22 61 -21 c70 -23 209 -27 318 -8 67 11 69 11 143 -23 58 -26 92 -34 151
-37 70 -4 77 -2 107 23 28 24 32 33 32 79 0 62 11 76 63 76 29 0 46 7 68 29
55 55 30 150 -50 190 -66 34 -63 41 21 56 22 3 50 18 68 36 61 61 27 165 -63
190 -23 7 -43 14 -45 15 -2 1 13 23 32 49 20 26 39 57 42 71 21 83 -70 159
-168 140 -20 -4 -62 -32 -107 -71 -71 -62 -77 -65 -126 -65 l-52 0 -7 70 c-7
63 -11 74 -43 106 -46 46 -89 64 -156 64 -118 0 -255 -117 -281 -241 -5 -25
-76 -102 -112 -122 -12 -7 -30 0 -73 30 -31 22 -80 52 -109 67 -61 31 -69 45
-77 148 -6 67 -4 80 28 163 19 50 38 105 42 122 8 39 21 49 41 32 8 -6 18 -9
22 -5 16 17 5 191 -16 267 -12 41 -22 89 -22 105 0 21 -13 46 -45 83 -28 32
-45 62 -45 78 0 14 -16 60 -35 103 -54 120 -48 155 62 337 28 44 70 122 94
172 l44 92 95 30 c137 43 163 45 255 19 95 -27 162 -24 231 11 53 26 64 42 90
137 16 57 16 68 3 105 -13 38 -17 42 -43 39 -16 -2 -43 3 -60 11 -65 31 -106
39 -122 26 -12 -10 -20 -6 -43 22 -28 33 -30 33 -48 17 -24 -22 -33 -23 -33
-4 0 8 12 24 27 35 l26 21 24 -22 c21 -20 27 -21 55 -10 28 10 35 9 53 -8 18
-17 27 -19 49 -10 38 14 44 13 51 -11 5 -16 12 -19 35 -14 22 5 31 2 39 -13
19 -36 39 -33 99 17 80 67 96 102 90 205 -5 71 -9 88 -42 140 -20 33 -36 63
-36 67 0 5 -20 22 -45 39 -43 30 -45 33 -45 81 0 27 -7 63 -15 79 -19 36 -101
99 -176 134 -31 15 -73 45 -94 66 -22 22 -44 40 -50 40 -6 0 -33 14 -60 31
-30 19 -56 28 -69 25 -13 -3 -37 6 -65 25 -35 23 -51 28 -76 23 -23 -4 -45 1
-73 15 -48 25 -78 27 -86 6 -4 -13 -10 -13 -47 0 -48 17 -81 19 -95 5 -6 -6
-22 -6 -44 0 -48 14 -60 13 -60 -6z m449 -104 c109 -35 165 -63 258 -129 72
-51 113 -96 113 -125 0 -27 -17 -18 -94 49 l-75 65 35 -57 c19 -31 34 -66 34
-76 0 -17 -5 -19 -40 -14 -28 4 -67 25 -132 71 -89 65 -114 76 -208 93 l-45 9
28 18 c24 17 34 17 85 7 33 -6 90 -30 135 -57 44 -25 81 -43 83 -41 5 5 -63
72 -109 108 -21 16 -31 19 -36 10 -6 -9 -24 -3 -68 21 l-61 33 -69 -17 c-47
-12 -86 -16 -125 -11 -41 4 -58 2 -58 -6 0 -6 10 -11 21 -11 30 0 8 -26 -29
-33 -15 -3 -36 -9 -46 -13 -16 -6 -18 -4 -14 14 7 27 1 27 -37 2 -18 -12 -38
-17 -53 -13 -16 4 -36 -4 -67 -26 -54 -39 -65 -39 -65 -1 0 22 -5 30 -18 30
-14 0 -17 -7 -14 -32 4 -38 -39 -98 -89 -123 -26 -14 -29 -14 -29 1 0 10 12
37 26 61 14 25 24 46 22 48 -1 1 -13 -1 -25 -6 -16 -6 -23 -17 -23 -34 0 -20
-18 -43 -69 -91 -37 -35 -87 -78 -109 -94 -28 -20 -44 -41 -52 -67 -8 -28 -22
-46 -56 -68 -25 -16 -52 -34 -59 -40 -27 -18 -27 5 -2 37 93 117 93 117 46 68
-24 -25 -70 -76 -102 -113 -32 -37 -62 -67 -67 -67 -19 0 11 74 50 122 l43 53
-51 -51 c-28 -28 -54 -64 -58 -80 -10 -44 -32 -74 -54 -74 -14 0 -20 7 -20 23
0 18 -2 19 -10 7 -5 -8 -10 -27 -10 -41 0 -15 -9 -37 -19 -51 -22 -27 -97 -65
-108 -54 -4 4 14 28 40 52 26 25 47 48 47 51 0 9 -74 -8 -85 -19 -7 -7 -3 -9
14 -5 23 6 22 4 -8 -27 -17 -18 -35 -46 -40 -62 -6 -16 -18 -51 -28 -78 l-18
-50 -123 -2 c-67 -2 -125 -5 -129 -7 -5 -2 -28 -1 -53 2 l-45 7 31 17 c18 9
50 19 72 23 22 3 55 15 74 27 32 19 32 20 10 28 -12 5 -22 10 -22 13 0 2 26
14 58 25 131 48 153 63 112 76 -31 10 -18 19 75 55 75 29 83 34 67 46 -21 15
-23 14 66 54 39 18 72 39 72 46 0 7 23 24 52 38 28 14 66 42 83 61 27 29 40
35 72 35 22 0 48 7 59 15 22 17 7 19 -30 5 -49 -18 -29 17 29 52 30 18 55 36
55 40 0 4 -10 10 -22 14 -26 8 -11 18 42 28 56 11 93 28 79 36 -15 10 -3 30
18 30 9 0 53 20 97 43 169 91 254 116 436 127 168 11 234 5 339 -30z m-449
-139 c0 -30 -23 -43 -46 -26 -19 15 -18 15 5 35 26 22 41 18 41 -9z m140 -1
c0 -5 -16 -10 -36 -10 -21 0 -33 4 -29 10 3 6 19 10 36 10 16 0 29 -4 29 -10z
m-240 -29 c0 -11 -67 -71 -80 -71 -24 0 -8 42 23 60 34 21 57 26 57 11z m996
-65 c35 -35 44 -66 20 -66 -12 0 -58 50 -80 88 -15 26 27 11 60 -22z m-916 -5
c0 -10 -24 -21 -46 -21 -20 0 -17 18 4 23 29 8 42 7 42 -2z m308 -20 c48 -25
163 -141 140 -141 -39 0 -125 24 -147 41 -13 11 -34 19 -47 19 -28 0 -41 18
-20 26 32 12 3 24 -60 24 -70 0 -77 11 -20 36 45 19 111 17 154 -5z m-517 -19
c-5 -10 -19 -26 -32 -37 l-22 -20 7 30 c7 32 33 58 48 49 4 -3 4 -13 -1 -22z
m720 -12 c23 -22 40 -43 36 -46 -14 -14 -59 9 -77 39 -38 61 -19 64 41 7z
m-821 2 c0 -11 -47 -54 -82 -77 -28 -17 -28 -17 -28 8 0 31 51 77 86 77 13 0
24 -4 24 -8z m122 -64 c-6 -6 -15 -8 -19 -4 -4 4 -1 11 7 16 19 12 27 3 12
-12z m-102 -21 c0 -7 -13 -23 -30 -35 -16 -13 -39 -41 -51 -63 -28 -55 -47
-39 -23 20 24 60 104 120 104 78z m1257 -46 c86 -42 93 -48 97 -86 2 -13 19
-39 40 -58 21 -20 36 -44 36 -58 0 -22 0 -22 -31 7 -28 26 -31 27 -25 7 10
-33 -10 -36 -32 -6 -17 23 -23 26 -33 16 -10 -10 -19 -8 -41 14 -22 21 -28 23
-28 10 0 -9 -3 -17 -7 -17 -4 0 -43 35 -87 78 -45 42 -90 82 -101 88 -19 10
-18 12 10 27 52 28 112 21 202 -22z m-1417 13 c0 -9 -19 -39 -41 -68 l-42 -51
6 43 c5 45 39 92 64 92 7 0 13 -7 13 -16z m512 -44 c-20 -13 -32 -26 -29 -35
4 -9 -12 -22 -46 -39 -146 -71 -178 -270 -66 -409 46 -56 24 -60 -26 -4 -25
27 -51 69 -61 100 -25 73 -23 179 4 237 19 39 19 46 7 56 -8 6 -15 14 -15 17
0 14 100 63 160 79 92 24 114 23 72 -2z m537 -6 c-24 -26 -112 -74 -136 -74
-7 0 -13 9 -13 21 0 18 -4 20 -25 15 -27 -7 -33 5 -12 22 10 8 35 15 142 36
11 2 31 4 44 5 l24 1 -24 -26z m-1639 -66 c0 -10 -4 -18 -9 -18 -11 0 -21 25
-21 53 1 22 1 22 15 3 8 -11 15 -28 15 -38z m1720 45 c-1 -10 -84 -71 -107
-80 -25 -9 23 44 62 68 32 20 45 24 45 12z m-363 -93 c36 -25 73 -56 82 -70
l16 -25 -30 23 c-16 13 -48 37 -70 54 -22 17 -59 39 -82 50 -24 10 -43 23 -43
28 0 14 57 -13 127 -60z m507 46 c27 -17 34 -50 15 -61 -5 -4 -19 1 -29 10
-14 13 -28 16 -55 11 -27 -5 -35 -4 -35 8 0 13 -5 13 -40 1 -48 -17 -51 -6 -8
30 27 23 39 26 79 23 27 -3 59 -12 73 -22z m-1134 5 c0 -12 -20 -25 -27 -18
-7 7 6 27 18 27 5 0 9 -4 9 -9z m-970 -56 c21 -23 27 -33 15 -27 -11 6 -36 27
-55 47 -21 23 -27 33 -15 27 11 -6 36 -27 55 -47z m720 20 c0 -41 -4 -43 -26
-10 -17 26 -12 45 12 45 9 0 14 -11 14 -35z m130 17 c0 -5 -21 -44 -46 -88
l-46 -79 7 50 c7 53 18 79 43 108 16 18 42 23 42 9z m-189 -49 c-19 -36 -108
-115 -116 -103 -15 24 6 61 52 90 54 35 79 39 64 13z m849 -125 c107 -173 168
-219 405 -308 147 -55 220 -88 212 -96 -2 -3 -58 13 -123 35 -66 22 -164 54
-219 70 -98 30 -101 32 -161 98 -94 105 -214 285 -214 322 0 27 38 -19 100
-121z m-274 96 c-15 -14 -31 -23 -34 -20 -9 9 30 46 47 46 11 -1 8 -8 -13 -26z
m-348 4 c-2 -6 -10 -14 -16 -16 -7 -2 -10 2 -6 12 7 18 28 22 22 4z m106 -36
c-11 -16 -19 -22 -22 -14 -2 7 4 25 14 40 11 16 19 22 22 14 2 -7 -4 -25 -14
-40z m-545 -71 c-82 -75 -89 -78 -89 -46 0 30 67 102 102 107 50 8 47 -6 -13
-61z m231 40 c-5 -11 -22 -29 -37 -41 -40 -31 -44 -4 -4 32 37 33 57 37 41 9z
m711 -21 c18 -15 20 -19 8 -20 -9 0 -24 9 -34 20 -23 26 -4 26 26 0z m196 -37
c-17 -18 -22 -8 -11 22 5 12 10 13 17 6 8 -8 6 -16 -6 -28z m183 23 c0 -8 -4
-18 -10 -21 -5 -3 -10 3 -10 14 0 12 5 21 10 21 6 0 10 -6 10 -14z m-1230 -6
c0 -13 -89 -110 -101 -110 -5 0 -9 11 -9 24 0 15 15 37 40 60 39 35 70 47 70
26z m1320 -9 c0 -10 -7 -24 -15 -31 -13 -11 -15 -8 -15 19 0 21 5 31 15 31 8
0 15 -8 15 -19z m104 11 c6 -11 -21 -52 -35 -52 -10 0 -13 43 -2 53 9 10 31 9
37 -1z m109 1 c6 -12 -12 -73 -22 -73 -15 0 -23 51 -10 66 13 15 26 18 32 7z
m-1388 -42 c-7 -32 -25 -43 -25 -15 0 19 20 57 27 51 3 -3 2 -19 -2 -36z
m1510 29 c3 -5 -5 -26 -19 -46 l-25 -37 -6 36 c-4 20 -4 40 0 46 8 14 42 14
50 1z m-1285 -5 c0 -3 -8 -18 -19 -33 -10 -15 -26 -40 -35 -55 -10 -16 -20
-26 -23 -24 -10 11 9 66 32 91 22 24 45 34 45 21z m1384 -24 c3 -5 -4 -21 -16
-36 -20 -26 -22 -26 -29 -9 -12 35 27 74 45 45z m-644 -15 c0 -7 -6 -19 -14
-25 -19 -16 -32 5 -16 24 16 19 30 19 30 1z m-1320 -15 c0 -15 -100 -103 -113
-98 -14 5 -10 35 6 56 29 35 107 66 107 42z m-900 -86 c23 -53 23 -55 11 -55
-9 0 -61 110 -61 131 0 19 26 -21 50 -76z m2918 45 c-11 -32 -28 -41 -28 -14
0 23 20 55 30 49 5 -3 4 -18 -2 -35z m-5794 -5 c-17 -27 -44 -34 -44 -12 0 19
21 37 42 37 17 0 17 -1 2 -25z m5146 6 c0 -23 -16 -36 -25 -21 -9 14 1 40 15
40 5 0 10 -9 10 -19z m-5335 -20 c-3 -12 -10 -21 -15 -21 -5 0 -4 11 2 25 13
29 23 26 13 -4z m392 14 c1 -5 -20 -22 -47 -37 l-50 -28 0 31 c0 31 0 31 -25
15 -25 -17 -36 -7 -12 12 26 22 127 27 134 7z m3832 -23 c-6 -18 -15 -32 -20
-32 -8 0 3 39 17 62 12 19 14 0 3 -30z m332 5 c-8 -8 -11 -7 -11 4 0 20 13 34
18 19 3 -7 -1 -17 -7 -23z m-4501 8 c0 -8 -4 -15 -10 -15 -5 0 -10 7 -10 15 0
8 5 15 10 15 6 0 10 -7 10 -15z m5112 -33 c20 -23 0 -24 -41 -1 -41 23 -47 30
-35 42 8 7 60 -21 76 -41z m-772 -11 c-12 -44 -30 -55 -30 -18 0 23 28 72 37
64 2 -3 -1 -23 -7 -46z m-3795 -27 c55 -31 107 -65 116 -76 8 -11 33 -28 55
-37 l39 -18 -50 -25 c-27 -14 -61 -29 -75 -33 -25 -7 -25 -7 4 24 32 33 25 38
-33 21 l-34 -9 22 22 c28 31 28 51 -1 43 -57 -16 -78 -18 -78 -7 0 6 9 16 20
23 32 20 23 31 -20 25 -36 -5 -39 -3 -30 13 6 10 10 21 10 24 0 14 -44 4 -71
-15 -30 -21 -38 -12 -17 21 17 27 3 36 -27 16 -30 -20 -34 -4 -9 33 23 32 55
24 179 -45z m3415 59 c0 -4 -26 -40 -57 -82 -42 -54 -59 -70 -61 -57 -7 34 29
107 62 127 31 19 56 25 56 12z m1404 -8 c8 -23 -4 -45 -25 -45 -22 0 -26 29
-7 48 16 16 25 15 32 -3z m102 -37 c-8 -43 -25 -61 -42 -47 -14 12 -9 35 14
62 23 27 35 21 28 -15z m88 -75 c-9 -7 -21 -10 -25 -7 -9 5 6 51 24 73 10 12
13 8 15 -19 3 -24 -2 -38 -14 -47z m-1593 12 c-21 -30 -44 -76 -51 -102 -16
-61 -27 -73 -35 -40 -9 33 30 119 72 165 48 50 56 38 14 -23z m-281 33 c-1
-17 -82 -78 -103 -78 -20 0 -21 4 -6 31 21 40 109 78 109 47z m576 -10 c-3
-13 -9 -42 -12 -65 -7 -43 -23 -59 -26 -25 -2 32 4 77 13 94 14 26 33 22 25
-4z m-687 5 c0 -5 -12 -33 -27 -63 -22 -44 -41 -65 -102 -108 l-75 -53 -65 6
c-77 7 -71 -6 11 -24 135 -29 289 -133 424 -288 132 -150 124 -161 -27 -41
-57 45 -138 112 -181 149 -79 68 -164 119 -201 119 -20 0 -20 0 0 -15 17 -14
9 -15 -96 -9 -75 4 -143 2 -193 -6 -43 -7 -80 -10 -83 -7 -8 8 78 56 156 87
39 14 73 30 77 33 3 4 -17 7 -45 7 -29 0 -52 4 -52 9 0 10 73 41 97 41 10 0
52 17 95 37 l79 36 -32 14 c-17 7 -42 13 -55 13 -45 0 -24 18 41 34 78 19 85
20 85 2 0 -10 12 -7 47 10 44 23 124 33 122 17z m221 -7 c0 -8 -9 -17 -20 -21
-11 -3 -42 -24 -70 -46 -66 -52 -86 -53 -53 -2 38 58 143 109 143 69z m1875
-30 c-5 -26 -12 -36 -26 -36 -26 0 -24 30 2 59 26 28 32 23 24 -23z m-1650
-35 c-15 -31 -35 -42 -35 -20 0 17 43 74 48 61 2 -6 -4 -24 -13 -41z m1725 26
c0 -27 -25 -65 -36 -54 -7 7 20 77 31 77 3 0 5 -10 5 -23z m-3060 -28 c60 -30
128 -84 119 -93 -6 -7 -204 108 -215 125 -9 15 27 3 96 -32z m1130 5 c0 -4
-26 -45 -57 -92 l-58 -86 -3 37 c-5 64 54 146 106 147 6 0 12 -3 12 -6z m1990
-43 c-12 -23 -30 -28 -30 -9 0 16 34 52 38 39 2 -5 -2 -19 -8 -30z m-1633 22
c-2 -5 -12 -34 -22 -65 -10 -32 -22 -58 -26 -58 -18 0 -9 77 12 104 18 23 47
38 36 19z m-3366 -83 l24 -19 -24 -1 c-20 0 -21 -2 -11 -15 7 -8 18 -15 25
-15 19 0 38 -27 25 -35 -17 -11 -11 -23 17 -30 14 -3 36 -13 47 -21 l20 -14
-21 0 c-34 0 -35 -15 -2 -39 16 -12 27 -26 24 -32 -4 -5 -11 -7 -16 -4 -5 4
-9 2 -9 -3 0 -5 23 -19 51 -30 56 -24 61 -44 13 -52 l-29 -5 38 -22 c43 -26
48 -42 12 -35 -39 7 -30 -14 23 -50 l47 -33 -35 -5 c-34 -5 -35 -6 -32 -43 4
-36 2 -38 -16 -28 -12 6 -39 11 -61 11 -48 0 -54 15 -11 25 56 12 47 45 -12
45 -39 0 -35 17 7 34 57 24 43 41 -40 48 l-30 3 38 18 c56 27 44 47 -29 47
-42 0 -44 14 -4 35 17 9 30 23 30 32 0 13 -8 15 -45 10 -25 -4 -45 -3 -45 1 0
4 16 17 36 30 19 12 32 27 29 32 -3 6 -29 10 -56 10 l-51 0 31 26 c17 14 31
30 31 35 0 12 -42 11 -77 -2 l-28 -10 34 35 35 36 -45 0 c-35 1 -40 3 -26 11
9 5 17 17 17 24 0 23 73 19 101 -5z m2704 -10 c-25 -27 -84 -64 -92 -56 -14
13 65 76 96 76 11 0 10 -5 -4 -20z m540 -32 c-4 -18 -13 -48 -21 -68 l-13 -35
0 56 c-1 51 10 79 32 79 5 0 5 -14 2 -32z m-237 -48 c-35 -63 -48 -74 -48 -39
0 38 41 99 67 99 10 0 4 -18 -19 -60z m-1302 5 c9 -14 14 -28 11 -31 -6 -6
-47 36 -47 48 0 17 20 7 36 -17z m2108 -17 c-8 -28 -12 -33 -20 -25 -9 8 6 47
17 47 6 0 7 -10 3 -22z m-664 -31 c0 -17 -34 -97 -41 -97 -13 0 -11 57 3 80
11 16 38 29 38 17z m-667 -57 c67 -10 187 -61 187 -80 0 -6 -10 -6 -26 1 -15
5 -28 8 -30 6 -2 -2 33 -37 79 -78 101 -91 139 -133 250 -276 99 -127 160
-183 337 -308 230 -164 242 -173 235 -204 -5 -22 2 -36 35 -73 54 -62 70 -104
70 -183 0 -74 -9 -84 -62 -66 -18 6 -82 15 -143 20 -85 7 -127 16 -187 40 -62
25 -90 31 -155 31 -103 0 -119 11 -62 42 41 22 54 23 222 23 177 0 178 0 140
17 -32 15 -113 35 -213 55 l-25 5 29 15 c15 8 67 18 115 22 l86 7 -40 12
c-117 36 -226 23 -327 -38 -34 -21 -64 -34 -66 -30 -6 16 27 67 60 95 49 42
115 68 188 74 l65 6 -49 18 c-68 23 -172 22 -238 -3 -28 -11 -54 -18 -56 -15
-8 8 40 60 81 88 61 42 115 34 265 -38 64 -31 110 -50 102 -42 -8 8 -79 62
-157 120 -177 133 -233 188 -312 305 -93 139 -250 284 -366 338 -53 25 -100
31 -110 14 -3 -5 -27 -10 -53 -10 -26 0 -54 -4 -62 -10 -17 -11 -18 -11 80
-36 36 -9 108 -37 160 -62 119 -58 227 -158 253 -237 9 -26 15 -51 12 -53 -6
-6 -4 -9 -45 53 -41 62 -102 137 -106 132 -2 -2 1 -17 7 -33 14 -36 -12 -110
-35 -101 -10 4 -18 -7 -28 -36 -7 -23 -17 -41 -23 -40 -5 1 -14 22 -19 47 -5
25 -12 46 -16 46 -4 0 -10 -20 -13 -45 -9 -60 -34 -118 -49 -113 -17 6 -22 52
-9 88 15 46 -6 47 -49 5 l-39 -38 -3 42 -3 42 -47 -66 c-26 -36 -53 -65 -59
-65 -15 0 -3 63 23 113 10 21 18 40 16 42 -4 4 -104 -21 -117 -29 -13 -9 -34
21 -25 36 4 7 21 30 38 50 16 21 27 41 24 44 -11 10 -46 -15 -69 -48 -33 -49
-81 -98 -96 -98 -16 0 -16 1 3 50 9 23 14 43 12 46 -3 3 -35 -28 -72 -67 -37
-40 -69 -69 -73 -65 -11 10 32 89 81 150 26 31 41 56 34 56 -19 0 -100 -69
-148 -125 -41 -48 -70 -73 -70 -60 0 3 9 24 20 45 11 22 16 40 11 40 -14 0
-121 -100 -121 -113 0 -6 12 0 27 14 38 35 25 6 -45 -98 -99 -148 -126 -216
-39 -98 45 61 107 117 107 97 0 -5 -8 -20 -18 -33 -37 -48 -122 -177 -122
-185 0 -4 21 12 48 38 50 48 101 82 87 56 -5 -7 -21 -29 -37 -49 -30 -39 -34
-59 -17 -76 7 -7 2 -21 -20 -46 -25 -28 -28 -36 -16 -41 25 -9 17 -23 -29 -50
-44 -26 -75 -56 -45 -44 8 3 22 9 32 13 11 5 17 2 17 -7 0 -8 -27 -34 -60 -58
-68 -50 -158 -157 -200 -240 -32 -62 -60 -184 -60 -256 0 -55 26 -103 67 -125
15 -8 40 -29 56 -46 16 -18 70 -53 120 -79 51 -25 93 -47 94 -48 13 -13 -133
20 -175 39 -31 14 -63 23 -73 20 -12 -4 -35 12 -75 52 l-59 58 0 135 c0 146 9
186 67 305 l29 60 -62 -60 -62 -60 7 35 c9 47 55 145 99 209 20 28 34 58 31
65 -3 7 20 40 50 74 62 70 74 90 111 188 14 38 44 113 67 168 39 92 41 99 25
111 -16 12 -14 16 25 48 24 19 76 56 117 83 l74 49 -49 5 -49 5 35 21 c19 12
69 39 110 60 71 37 73 39 45 44 l-30 6 45 26 c94 56 251 107 375 121 54 7 59
7 128 -3z m1174 -98 c-21 -121 -26 -158 -37 -316 -11 -159 -24 -193 -35 -90
-15 139 13 352 61 474 25 61 29 35 11 -68z m468 -53 l-36 -74 70 75 c38 41 73
72 77 68 8 -9 -45 -104 -96 -173 -47 -62 -72 -113 -111 -218 -45 -125 -125
-280 -165 -321 -20 -21 -38 -35 -40 -33 -2 2 36 98 85 213 90 213 106 254 98
254 -2 0 -26 -12 -51 -26 -26 -15 -49 -24 -52 -22 -2 3 27 43 66 89 39 46 97
121 127 166 31 46 58 81 60 79 3 -2 -12 -37 -32 -77z m-114 23 c-11 -23 -26
-44 -31 -47 -12 -8 14 61 32 82 20 25 20 6 -1 -35z m-2455 -137 c43 -33 66
-56 60 -62 -4 -5 -116 75 -116 83 0 11 27 1 56 -21z m1893 -37 c0 -13 -4 -41
-8 -63 -8 -38 -9 -37 -10 23 -1 35 3 62 9 62 6 0 10 -10 9 -22z m-3245 -98 c7
-7 6 -14 -2 -22 -10 -10 -17 -10 -32 0 -11 6 -32 12 -47 12 -27 1 -27 1 -8 16
21 16 71 12 89 -6z m1301 -48 c44 -22 12 -28 -36 -7 -21 10 -39 22 -39 27 0
11 32 2 75 -20z m1168 -23 c8 -32 -3 -79 -19 -79 -10 0 -14 13 -14 43 0 42 5
57 21 57 3 0 9 -10 12 -21z m-2396 -32 c28 -15 54 -31 57 -35 5 -9 -190 29
-226 43 -10 4 -15 12 -12 17 12 19 126 2 181 -25z m1784 -41 c-35 -77 -57 -88
-48 -23 4 30 14 50 37 70 18 16 34 26 37 24 2 -3 -9 -35 -26 -71z m1263 8 c8
-25 34 -78 56 -117 50 -85 48 -109 -3 -40 -41 56 -71 120 -81 171 -8 48 10 39
28 -14z m531 -26 c-21 -62 -55 -128 -68 -128 -11 0 -2 29 41 124 39 86 54 88
27 4z m-1655 35 c0 -9 -7 -24 -15 -33 -8 -9 -28 -41 -45 -71 l-30 -54 0 47 c0
41 5 54 36 88 39 43 54 50 54 23z m-2000 -42 c0 -18 -9 -19 -77 -5 -42 8 -24
24 27 24 42 0 50 -3 50 -19z m2165 -38 c-3 -16 -16 -44 -28 -63 -18 -28 -22
-31 -25 -16 -6 28 27 106 45 106 12 0 14 -7 8 -27z m215 6 c0 -13 -39 -79 -46
-79 -6 0 7 51 18 73 10 19 28 23 28 6z m85 -64 c-10 -19 -22 -35 -27 -35 -13
0 0 59 20 90 17 25 17 25 20 3 2 -12 -4 -38 -13 -58z m-213 13 c-12 -13 -22
-17 -22 -11 0 15 31 46 38 38 3 -3 -4 -15 -16 -27z m-2274 5 c2 -9 -8 -13 -32
-13 -34 0 -52 11 -39 24 11 11 66 2 71 -11z m4012 -139 c63 -151 47 -182 -21
-41 -23 49 -39 95 -39 116 1 34 2 35 15 17 8 -10 28 -52 45 -92z m-197 65
c-21 -35 -63 -77 -63 -62 0 15 59 93 71 93 5 0 2 -14 -8 -31z m-2113 10 c0 -6
-11 -25 -25 -43 -14 -18 -25 -39 -25 -46 0 -20 -31 -50 -52 -50 -10 0 -18 4
-18 9 0 9 54 84 88 124 17 19 32 22 32 6z m-1695 -19 c11 -18 -19 -21 -65 -6
l-45 14 52 1 c28 1 55 -4 58 -9z m-30 -71 c56 -15 155 -60 155 -70 0 -5 -12
-4 -27 2 -15 5 -63 15 -107 20 -88 11 -148 35 -125 50 19 12 56 11 104 -2z
m3549 -16 c19 -68 27 -142 17 -161 -19 -35 -46 -44 -66 -22 -16 18 -16 23 6
109 24 91 33 107 43 74z m-1800 -34 c-31 -32 -44 -36 -44 -15 0 18 49 58 62
50 5 -4 -3 -19 -18 -35z m2151 2 c-8 -26 -98 -107 -149 -134 l-41 -22 65 -5
c74 -6 97 -17 134 -60 26 -31 61 -128 50 -139 -3 -3 -22 13 -42 36 -20 22 -47
46 -59 52 -22 11 -113 31 -113 25 0 -1 18 -13 40 -25 57 -32 59 -49 5 -49 -24
0 -47 -4 -50 -10 -3 -5 1 -10 10 -10 44 0 154 -87 140 -110 -3 -4 -32 1 -66
11 -66 20 -125 24 -149 9 -11 -7 -9 -11 13 -19 16 -6 33 -11 38 -11 21 0 109
-51 119 -69 22 -41 14 -47 -59 -43 -43 3 -77 -1 -92 -8 -22 -12 -21 -13 26
-25 62 -16 76 -34 63 -83 -12 -47 -32 -62 -80 -62 -35 0 -38 2 -49 42 -13 52
-49 124 -96 194 -34 51 -35 55 -25 101 6 26 14 68 18 93 8 57 34 101 78 131
30 20 32 25 18 35 -25 18 -1 40 90 84 42 21 96 51 120 67 24 17 45 29 46 27 2
-1 1 -12 -3 -23z m-2045 13 c0 -13 -21 -44 -30 -44 -11 0 -14 33 -3 43 8 8 33
9 33 1z m2164 -40 c4 -10 1 -14 -6 -12 -15 5 -23 28 -10 28 5 0 13 -7 16 -16z
m-4057 -29 c41 -27 24 -35 -29 -15 -29 11 -54 20 -55 20 -2 0 -3 5 -3 11 0 15
56 4 87 -16z m1683 8 c0 -20 -28 -53 -47 -53 -20 0 -16 21 9 47 25 27 38 29
38 6z m80 -20 c-1 -14 -27 -43 -39 -43 -14 0 -14 6 -1 31 10 18 40 27 40 12z
m90 -6 c0 -14 -20 -37 -32 -37 -12 0 -10 24 4 38 16 16 28 15 28 -1z m121 -20
c-16 -16 -26 0 -10 19 9 11 15 12 17 4 2 -6 -1 -17 -7 -23z m-795 -37 c2 0 4
-4 4 -10 0 -17 -24 -11 -55 15 l-30 26 39 -16 c21 -8 40 -15 42 -15z m-1208
-6 c12 -8 20 -19 17 -24 -7 -11 -64 7 -85 26 -12 12 -10 14 16 14 16 0 40 -7
52 -16z m1660 -16 c-5 -14 -56 -33 -65 -24 -3 3 0 12 7 21 15 18 64 21 58 3z
m857 -40 c-10 -45 -33 -88 -51 -95 -22 -8 -30 5 -16 25 7 9 22 36 34 60 26 50
42 55 33 10z m-299 -70 c253 -119 343 -158 395 -169 59 -13 130 -7 269 22 102
21 137 19 229 -12 39 -14 83 -19 160 -19 93 -1 114 -4 171 -28 36 -16 85 -41
109 -56 l45 -29 -28 -23 c-33 -29 -46 -30 -46 -5 0 50 -20 63 -52 34 -17 -15
-20 -15 -28 -3 -6 8 -10 25 -10 38 0 27 -4 27 -46 1 l-34 -21 -10 26 c-5 14
-12 26 -14 26 -3 0 -22 -11 -42 -25 -42 -28 -100 -35 -90 -10 5 14 2 14 -24 0
-38 -20 -43 -19 -37 5 6 25 -3 25 -42 3 -36 -21 -48 -12 -33 22 13 29 10 30
-21 11 -33 -21 -107 -28 -107 -10 0 19 -3 18 -59 -10 -26 -14 -61 -24 -78 -24
-16 1 -38 -4 -48 -9 -16 -9 -15 -11 13 -18 18 -4 32 -13 32 -21 0 -18 -59 -44
-100 -44 -45 0 -49 25 -9 66 69 71 -31 25 -146 -67 -42 -34 -78 -59 -80 -57
-3 2 18 31 45 64 55 65 61 81 28 63 -41 -22 -110 -88 -156 -149 -24 -34 -47
-59 -50 -56 -9 10 53 120 96 167 24 26 60 58 80 71 52 32 22 34 -67 3 -80 -27
-107 -30 -131 -15 -22 14 -7 22 77 40 l77 16 -33 14 c-26 10 -38 11 -52 2 -10
-7 -27 -12 -37 -12 -9 0 -28 -7 -40 -16 -21 -14 -25 -14 -47 0 -44 29 -27 62
35 68 40 3 44 17 9 35 -20 10 -27 9 -44 -6 -11 -10 -30 -22 -43 -26 -12 -3
-30 -17 -38 -30 -18 -28 -67 -40 -119 -31 -43 8 -38 19 26 51 52 27 60 40 30
50 -25 7 -58 -6 -105 -44 -44 -35 -75 -46 -105 -36 -29 9 -26 23 9 43 16 9 30
21 30 27 0 5 12 19 28 32 l27 22 -28 1 c-15 0 -44 -7 -64 -15 -36 -15 -123
-21 -123 -8 0 4 12 20 27 35 l27 28 -27 0 c-37 0 -109 -30 -104 -43 2 -7 14
-14 27 -17 18 -4 20 -7 9 -17 -13 -11 -83 -43 -179 -84 l-45 -19 50 45 c49 43
49 45 23 45 -32 0 -35 11 -11 47 17 25 17 26 -7 18 -14 -4 -49 -17 -77 -30
-61 -28 -73 -13 -23 28 80 68 302 118 506 113 l110 -2 140 -66z m-2248 36 c27
-17 24 -41 -4 -36 -27 5 -84 42 -84 54 0 14 57 2 88 -18z m1172 -54 c12 -8 12
-10 -5 -10 -11 0 -27 5 -35 10 -12 8 -12 10 5 10 11 0 27 -5 35 -10z m-1205
-42 c7 -8 1 -9 -25 -4 -19 3 -39 11 -45 18 -7 8 -1 9 25 4 19 -3 39 -11 45
-18z m177 -29 c16 -12 27 -23 25 -26 -6 -6 -64 24 -72 37 -11 17 16 11 47 -11z
m-222 -57 c25 -17 25 -17 3 -20 -25 -4 -83 24 -83 39 0 14 47 3 80 -19z m1952
8 c-13 -11 -43 -25 -65 -30 -23 -6 -50 -13 -59 -16 -28 -8 -22 22 8 45 20 16
41 21 83 21 l56 -1 -23 -19z m-362 -20 c0 -11 -59 -50 -75 -50 -13 1 52 60 65
60 6 0 10 -5 10 -10z m-1480 -36 c0 -8 -4 -12 -10 -9 -5 3 -10 10 -10 16 0 5
5 9 10 9 6 0 10 -7 10 -16z m-165 -36 c28 -13 33 -28 10 -28 -17 0 -75 27 -75
35 0 9 39 5 65 -7z m2005 6 c0 -8 -79 -41 -119 -49 -42 -9 -34 7 17 35 34 18
102 27 102 14z m394 -13 c15 -17 15 -19 1 -25 -26 -10 -93 -7 -100 4 -24 39
66 58 99 21z m-164 -1 c8 -5 12 -12 8 -15 -7 -7 -120 -25 -161 -25 -34 0 -32
19 4 37 28 15 127 17 149 3z m-433 -16 c3 -9 -58 -34 -82 -34 -13 0 18 32 40
40 23 10 37 8 42 -6z m-1830 -65 c28 -10 38 -28 20 -35 -17 -6 -97 32 -97 46
0 10 32 6 77 -11z m2373 11 c23 -14 1 -29 -53 -36 -39 -6 -47 -4 -47 9 0 31
66 49 100 27z m160 -4 c0 -17 -27 -28 -51 -21 -34 11 -22 35 16 35 23 0 35 -5
35 -14z m-520 -16 c-29 -22 -60 -32 -60 -19 0 11 50 38 70 38 10 0 6 -6 -10
-19z m200 11 c0 -10 -119 -45 -127 -37 -8 8 78 46 105 46 12 0 22 -4 22 -9z
m1015 -16 c191 -21 284 -56 394 -151 52 -45 121 -130 121 -150 0 -7 -12 -21
-26 -30 -31 -21 -44 -8 -44 44 0 39 -9 40 -51 5 l-32 -27 7 29 c5 17 9 46 9
65 2 43 -23 51 -64 21 -33 -25 -44 -14 -35 35 8 39 0 42 -45 19 -37 -20 -49
-13 -49 31 0 19 -2 34 -6 34 -3 0 -22 -11 -42 -25 -44 -30 -62 -20 -45 25 14
38 7 38 -43 0 -40 -30 -87 -39 -100 -19 -4 7 4 20 17 30 29 23 6 25 -31 4 -36
-20 -43 -18 -36 10 7 26 6 26 -23 10 -44 -22 -65 -20 -51 5 13 23 5 25 -30 5
-14 -8 -30 -14 -36 -15 -18 0 -26 31 -13 46 15 18 71 18 254 -1z m1769 -26
c-10 -12 -31 -27 -46 -35 -25 -13 -28 -13 -28 1 0 27 -28 16 -50 -19 -11 -19
-30 -38 -41 -41 -24 -8 -49 -61 -49 -103 0 -20 -13 -42 -44 -74 -54 -56 -102
-155 -111 -225 -4 -29 -11 -55 -15 -58 -15 -9 -21 53 -11 109 13 69 31 105 92
180 27 34 50 74 54 95 10 55 39 94 102 138 69 48 77 51 127 52 l39 1 -19 -21z
m-2229 -9 c-10 -11 -20 -18 -23 -15 -7 6 18 35 31 35 5 0 2 -9 -8 -20z m-345
-5 c-7 -8 -24 -15 -37 -15 -22 0 -24 2 -13 15 7 8 24 15 37 15 22 0 24 -2 13
-15z m1413 -27 c31 -42 16 -56 -23 -21 -20 18 -30 34 -26 42 11 16 26 10 49
-21z m1251 -1 c15 -19 26 -46 26 -61 l0 -26 -42 30 c-22 16 -49 30 -60 30 -23
0 -24 35 0 49 30 18 50 12 76 -22z m-4924 -18 c0 -5 -13 -3 -30 6 -16 9 -30
20 -30 26 0 5 14 3 30 -6 17 -9 30 -20 30 -26z m2340 22 c0 -15 -38 -56 -45
-49 -8 8 23 58 36 58 5 0 9 -4 9 -9z m-2559 -17 c17 -8 28 -18 26 -21 -7 -7
-75 16 -82 28 -9 14 23 11 56 -7z m2334 7 c-12 -10 -73 -31 -91 -31 -22 0 -16
16 9 28 27 13 95 16 82 3z m109 -32 c-7 -11 -34 -12 -34 -1 0 14 11 21 26 15
8 -3 11 -9 8 -14z m406 -3 c0 -15 -18 -31 -26 -23 -7 7 7 37 17 37 5 0 9 -6 9
-14z m1311 -155 c-33 -109 -109 -214 -182 -251 -44 -23 -59 -13 -59 42 0 40 3
44 92 98 51 32 88 87 136 202 l27 67 3 -46 c2 -26 -5 -74 -17 -112z m-1235
138 c10 -17 -23 -46 -38 -31 -8 8 -8 15 2 27 15 18 26 19 36 4z m2667 2 c25
-10 42 -37 29 -45 -13 -8 -94 33 -87 44 8 12 26 13 58 1z m-5635 -41 c39 -18
58 -50 29 -50 -14 0 -107 56 -107 65 0 11 37 4 78 -15z m3041 11 c18 -11 7
-27 -31 -47 -40 -21 -58 -5 -34 30 17 27 40 33 65 17z m-349 -30 c-6 -12 -15
-21 -21 -21 -10 0 -5 13 14 38 15 19 20 7 7 -17z m1239 4 c51 -24 56 -25 87
-10 34 16 84 7 84 -16 0 -35 -100 -119 -142 -119 -21 0 -76 64 -99 114 -28 64
-14 70 70 31z m1686 11 c16 -12 17 -17 7 -42 -7 -16 -23 -43 -37 -59 l-24 -30
-1 67 c0 61 5 74 31 77 3 1 14 -5 24 -13z m-2485 -20 c0 -21 -26 -37 -70 -43
-50 -7 -53 9 -7 37 37 23 77 26 77 6z m2356 -12 c-15 -14 -31 -22 -35 -19 -7
8 36 45 53 45 6 0 -2 -12 -18 -26z m-2228 -30 c67 -33 141 -100 182 -165 28
-43 31 -52 19 -64 -13 -13 -89 -47 -89 -41 0 2 7 20 16 41 18 45 13 53 -26 38
-36 -14 -41 -9 -28 28 13 38 6 45 -32 29 -38 -16 -45 -9 -32 29 6 16 8 31 6
34 -2 2 -22 -1 -44 -6 -53 -15 -68 0 -40 36 24 30 13 34 -31 11 -17 -8 -40
-14 -52 -12 -21 3 -20 5 12 36 41 39 70 41 139 6z m-3300 -26 c32 -20 43 -48
19 -48 -20 0 -107 58 -107 71 0 15 46 3 88 -23z m2807 22 c-3 -5 -10 -10 -16
-10 -5 0 -9 5 -9 10 0 6 7 10 16 10 8 0 12 -4 9 -10z m2670 -6 c22 -23 5 -37
-28 -25 -29 11 -35 26 -14 34 20 9 25 8 42 -9z m-5305 -14 c0 -5 -4 -10 -10
-10 -5 0 -10 5 -10 10 0 6 5 10 10 10 6 0 10 -4 10 -10z m5060 -39 c-1 -25 -1
-25 -15 -7 -8 11 -15 29 -15 39 0 16 3 17 15 7 8 -7 15 -24 15 -39z m144 36
c24 -18 5 -33 -51 -40 -36 -4 -44 -2 -58 19 -8 13 -15 26 -15 29 0 11 107 4
124 -8z m-838 -37 c124 -62 193 -130 98 -96 -46 16 -186 99 -204 121 -23 28
23 17 106 -25z m-1676 10 c0 -5 -4 -10 -10 -10 -5 0 -10 5 -10 10 0 6 5 10 10
10 6 0 10 -4 10 -10z m41 -43 c-16 -16 -26 0 -10 19 9 11 15 12 17 4 2 -6 -1
-17 -7 -23z m2019 -15 c0 -13 -3 -12 -20 3 -11 10 -17 22 -14 27 8 12 34 -11
34 -30z m-4980 -2 c44 -22 55 -36 40 -45 -14 -9 -122 44 -115 56 9 14 32 11
75 -11z m4514 14 c9 -3 14 -10 11 -14 -6 -9 -53 -1 -61 11 -6 10 26 12 50 3z
m-1478 -15 c4 -7 -4 -20 -17 -30 -30 -23 -39 -24 -39 -1 0 34 40 56 56 31z
m-1606 -19 c0 -5 -6 -10 -14 -10 -8 0 -18 5 -21 10 -3 6 3 10 14 10 12 0 21
-4 21 -10z m2225 -10 c15 -17 16 -22 4 -36 -12 -14 -14 -14 -26 2 -15 20 -17
54 -5 54 5 0 17 -9 27 -20z m-576 -37 c-22 -22 -59 -32 -59 -14 0 4 12 20 26
35 21 20 30 24 41 15 11 -10 10 -16 -8 -36z m916 -54 l7 -54 -26 30 c-36 42
-44 75 -20 92 24 17 31 5 39 -68z m615 71 c0 -5 -18 -10 -39 -10 -22 0 -43 5
-46 10 -4 6 12 10 39 10 25 0 46 -4 46 -10z m330 -9 c17 -33 11 -48 -10 -22
-11 13 -20 27 -20 32 0 16 19 9 30 -10z m868 3 c24 -17 30 -54 8 -54 -7 0 -25
9 -39 20 -30 24 -49 26 -41 5 10 -25 -22 -28 -70 -6 -25 11 -46 23 -46 26 0
26 153 34 188 9z m-2624 -47 c34 -45 106 -179 106 -198 0 -18 -28 -29 -72 -29
-33 0 -35 9 -9 52 24 38 19 51 -15 38 -50 -19 -58 -14 -35 25 l20 35 -39 0
c-46 0 -48 7 -19 44 16 21 17 26 5 26 -8 0 -18 -4 -21 -10 -8 -13 -35 -13 -35
-1 0 5 12 23 26 40 30 36 47 31 88 -22z m-3239 6 c19 -9 35 -20 35 -25 0 -13
-13 -9 -55 17 -46 28 -33 33 20 8z m4713 5 c-5 -15 -58 -24 -58 -9 0 9 20 17
48 20 8 0 12 -5 10 -11z m-2916 -19 c2 -18 16 -31 46 -45 2 -1 -11 -29 -27
-63 -33 -64 -32 -69 9 -46 14 8 29 14 34 15 4 0 -49 -59 -118 -131 -69 -72
-126 -135 -126 -140 0 -13 15 -4 75 46 56 47 155 115 168 115 4 0 -57 -64
-135 -142 -79 -79 -152 -159 -162 -178 -17 -30 -9 -25 57 36 46 44 107 87 155
112 81 43 132 65 132 57 0 -2 -45 -39 -101 -81 -55 -43 -129 -110 -164 -150
-61 -71 -145 -186 -145 -200 0 -4 52 43 114 104 116 112 195 177 204 167 3 -3
-62 -74 -144 -158 -161 -163 -188 -203 -243 -357 l-31 -85 30 34 c16 19 32 32
35 29 3 -3 -7 -39 -23 -79 -40 -102 -65 -179 -59 -185 3 -3 21 24 41 60 31 56
56 88 56 73 0 -2 -20 -46 -44 -98 -24 -52 -49 -112 -54 -134 l-11 -40 21 25
21 25 -6 -25 c-3 -14 -13 -68 -22 -120 -21 -124 -35 -180 -46 -180 -17 0 -24
82 -24 285 1 190 4 227 33 398 18 104 44 232 58 285 39 147 38 142 20 142 -21
0 -20 6 8 43 13 18 50 77 81 132 32 55 69 115 83 134 19 26 22 35 12 41 -10 6
-4 21 27 62 22 29 53 78 68 108 38 75 73 130 84 130 5 0 11 -10 13 -21z m2095
-30 c129 -72 138 -89 45 -89 -47 0 -60 -4 -84 -27 -34 -32 -39 -28 -63 51 -16
51 -19 98 -9 109 8 8 40 -5 111 -44z m-1912 3 c44 -15 84 -32 88 -39 9 -15 62
-29 141 -39 77 -9 51 -26 -39 -26 -72 1 -132 15 -195 47 -48 25 -131 104 -95
91 11 -4 56 -19 100 -34z m-1795 18 c0 -5 -7 -7 -15 -4 -8 4 -15 8 -15 10 0 2
7 4 15 4 8 0 15 -4 15 -10z m1394 -20 c16 -16 -26 -11 -54 6 l-25 15 35 -6
c19 -3 39 -10 44 -15z m3366 1 c0 -11 -4 -23 -10 -26 -6 -4 -10 5 -10 19 0 14
5 26 10 26 6 0 10 -9 10 -19z m-1272 -3 c23 -23 12 -44 -34 -66 l-46 -23 6 28
c16 61 47 88 74 61z m-3689 -63 c21 -21 9 -27 -25 -15 -32 12 -64 38 -64 52 0
11 70 -18 89 -37z m-92 -76 c24 -11 43 -25 43 -30 0 -12 -70 17 -90 36 -20 21
-4 19 47 -6z m208 11 c3 -5 -1 -10 -9 -10 -9 0 -16 5 -16 10 0 6 4 10 9 10 6
0 13 -4 16 -10z m3649 -12 c20 -31 42 -116 32 -125 -4 -4 -28 13 -52 39 -44
47 -45 48 -29 78 19 36 30 38 49 8z m274 -41 c2 -10 -11 -32 -31 -52 -27 -27
-43 -35 -71 -35 -41 0 -45 13 -20 63 22 42 32 48 79 45 29 -2 41 -8 43 -21z
m1792 -7 c30 -21 39 -53 19 -65 -6 -4 -20 2 -32 12 -12 11 -39 29 -60 41 -37
21 -37 21 -26 1 6 -11 8 -27 5 -35 -6 -15 -22 -11 -75 20 l-34 20 49 18 c60
21 113 17 154 -12z m-2420 -52 c0 -10 -8 -21 -17 -24 -10 -3 -26 -10 -35 -15
-25 -13 -28 -12 -28 10 0 10 11 30 25 45 21 23 28 26 40 16 8 -7 15 -21 15
-32z m227 -1 c62 -32 70 -43 44 -56 -40 -22 -98 -13 -136 20 -37 33 -42 48
-24 66 13 13 46 5 116 -30z m-454 -26 c27 -25 34 -41 18 -41 -15 0 -81 66 -81
80 0 14 13 6 63 -39z m-3289 2 c42 -22 19 -39 -31 -23 -45 15 -65 29 -57 41 6
11 47 2 88 -18z m150 -38 c-4 -8 -10 -15 -15 -15 -5 0 -9 7 -9 15 0 8 7 15 15
15 9 0 12 -6 9 -15z m3416 -119 l-1 -51 -34 40 c-19 22 -35 43 -35 48 0 4 10
17 22 29 20 20 22 20 35 3 7 -11 13 -42 13 -69z m2209 58 c33 -27 44 -71 15
-60 -9 3 -24 6 -35 6 -10 0 -19 5 -19 11 0 6 -9 24 -21 40 l-20 29 25 0 c13 0
38 -12 55 -26z m-1719 -51 c-25 -48 -33 -52 -112 -67 -30 -5 -38 -4 -38 8 0
26 53 78 104 102 67 31 79 19 46 -43z m-250 42 c0 -22 -75 -101 -110 -115 -41
-17 -60 -7 -60 32 0 46 9 54 60 63 25 4 56 13 70 21 33 17 40 17 40 -1z
m-3845 -34 c26 -13 27 -16 10 -19 -26 -4 -98 21 -103 36 -5 15 52 5 93 -17z
m3471 -36 c85 -56 88 -89 7 -61 -59 20 -143 76 -143 95 0 24 78 5 136 -34z
m-3511 -85 l40 -19 -35 6 c-50 7 -110 23 -110 28 0 12 69 2 105 -15z m4086
-208 c-48 -250 -89 -329 -259 -502 -103 -104 -114 -111 -60 -36 15 22 26 41
24 43 -2 2 -20 -6 -40 -17 -54 -33 -66 -18 -14 18 77 53 172 165 222 261 25
49 46 92 46 96 0 4 -21 -12 -47 -35 -55 -48 -128 -93 -143 -88 -5 1 34 53 88
115 87 101 164 213 146 213 -4 0 -36 -18 -71 -41 -113 -71 -89 -28 52 94 l70
61 3 -38 c2 -20 -6 -85 -17 -144z m-711 82 c65 -50 106 -92 97 -100 -12 -13
-177 126 -177 149 0 11 13 3 80 -49z m-3368 -5 c55 -12 87 -29 52 -29 -44 1
-159 21 -168 30 -14 14 49 13 116 -1z m2179 -59 c-12 -54 1 -159 22 -187 16
-22 45 -14 67 17 12 17 25 30 29 30 3 0 15 -13 24 -30 29 -49 69 -36 86 27 l8
28 16 -31 c25 -48 43 -59 74 -45 34 16 41 7 49 -61 9 -77 -9 -85 -69 -32 l-42
39 -3 -29 c-7 -56 65 -115 108 -88 17 11 20 8 30 -29 13 -49 10 -101 -7 -107
-7 -2 -27 20 -45 49 -33 52 -33 52 -36 23 -4 -43 13 -80 45 -100 41 -26 53
-44 53 -80 0 -50 -18 -51 -66 -3 l-44 43 0 -41 c0 -64 15 -93 46 -93 31 0 90
-34 104 -60 13 -24 13 -80 1 -80 -5 0 -26 19 -45 42 l-36 42 0 -30 c0 -56 -15
-58 -48 -4 -33 52 -52 64 -52 30 0 -29 -9 -25 -57 22 l-43 42 0 -52 c0 -59
-16 -70 -26 -17 -8 44 -26 45 -70 1 l-34 -34 0 40 c0 36 -2 39 -16 27 -9 -7
-31 -36 -50 -63 l-33 -49 -6 29 c-13 58 -15 59 -35 26 -11 -18 -26 -32 -33
-32 -8 0 -22 -9 -32 -20 -10 -11 -22 -20 -28 -20 -13 0 -3 57 22 115 11 28 26
70 32 95 11 44 59 100 121 142 17 12 27 29 30 53 2 19 2 35 -2 35 -3 0 -19
-16 -36 -37 -41 -48 -59 -38 -51 29 4 28 11 56 17 63 5 6 13 34 16 61 l6 49
-45 -50 c-33 -36 -48 -47 -57 -39 -17 17 2 53 60 117 41 45 53 66 57 99 l5 43
-18 -25 c-30 -42 -76 -94 -97 -109 -18 -13 -19 -12 -12 30 9 52 18 72 57 119
15 19 28 39 28 44 0 5 12 29 26 54 34 58 50 45 35 -28z m197 15 c16 -36 15
-110 -2 -124 -18 -15 -46 -3 -56 25 -11 29 15 124 34 124 7 0 18 -11 24 -25z
m889 -47 c61 -63 153 -182 153 -199 0 -21 -31 -6 -68 35 -77 83 -174 226 -154
226 4 0 35 -28 69 -62z m-1249 -22 c12 0 22 -3 22 -6 0 -13 -86 -100 -100
-100 -21 0 -6 103 22 148 l23 37 5 -40 c4 -34 9 -40 28 -39z m492 -7 c12 -45
6 -79 -15 -79 -14 0 -55 46 -55 62 0 15 44 66 52 61 4 -2 12 -22 18 -44z
m-610 36 c0 -3 -9 -24 -21 -46 -13 -26 -18 -50 -15 -67 4 -18 -1 -38 -14 -59
-23 -39 -50 -44 -50 -9 0 28 77 186 91 186 5 0 9 -2 9 -5z m375 -32 c-8 -44
-22 -73 -35 -73 -11 0 -50 54 -50 69 0 13 49 40 74 41 16 0 17 -5 11 -37z
m-2210 -14 c5 -5 -30 -9 -83 -9 -51 0 -92 4 -92 9 0 20 153 19 175 0z m2601
-137 c6 -28 4 -32 -14 -32 -23 0 -59 41 -68 76 -3 12 2 37 12 55 l17 34 24
-51 c12 -28 26 -65 29 -82z m-896 98 c-11 -20 -50 -46 -50 -33 0 10 42 53 52
53 5 0 4 -9 -2 -20z m-1702 -36 c3 -18 -3 -22 -43 -27 -50 -7 -199 2 -190 12
10 10 168 40 200 38 22 -2 31 -7 33 -23z m1932 -26 c0 -23 -57 -112 -94 -147
-33 -32 -36 -33 -36 -13 0 38 41 111 79 142 39 33 51 37 51 18z m770 -127 c22
-68 16 -96 -15 -71 -34 29 -47 70 -40 129 7 53 7 55 21 31 7 -14 23 -54 34
-89z m-2683 53 c4 -10 -1 -22 -11 -29 -19 -15 -240 -59 -259 -52 -16 5 82 55
153 78 71 23 109 24 117 3z m118 -14 c-3 -5 -15 -10 -26 -10 -10 0 -19 5 -19
10 0 6 12 10 26 10 14 0 23 -4 19 -10z m2467 -89 c15 -32 17 -46 9 -54 -26
-26 -72 39 -86 118 l-7 40 32 -30 c18 -16 41 -50 52 -74z m-836 32 c-8 -15
-28 -44 -45 -63 l-30 -35 -1 39 c0 32 7 45 42 80 33 32 43 37 46 24 2 -9 -3
-29 -12 -45z m164 -14 c0 -40 -22 -89 -54 -118 l-26 -24 0 41 c0 49 14 89 42
119 26 27 38 21 38 -18z m839 11 c12 -18 13 -22 2 -19 -8 3 -21 16 -30 29 -12
18 -13 22 -2 19 8 -3 21 -16 30 -29z m-2609 -19 c0 -10 -40 -22 -52 -15 -18
11 -6 24 22 24 17 0 30 -4 30 -9z m-115 -22 c4 -12 3 -25 -2 -30 -7 -7 -162
-28 -212 -29 -31 0 7 21 90 50 100 35 116 37 124 9z m1785 -34 c0 -19 -44
-116 -59 -129 -46 -42 -36 46 11 100 26 30 48 43 48 29z m170 -33 c0 -46 -48
-147 -70 -147 -16 0 -25 35 -16 69 7 30 64 116 76 116 5 0 10 -17 10 -38z
m814 -15 c16 -26 26 -51 22 -55 -11 -10 -76 67 -76 90 0 31 22 16 54 -35z
m-119 -9 c28 -60 31 -88 11 -88 -27 0 -77 105 -61 129 13 21 26 10 50 -41z
m1778 -12 c35 -28 47 -46 29 -46 -13 0 -92 70 -92 81 0 12 13 5 63 -35z
m-4381 -44 c27 -58 58 -101 123 -169 106 -114 182 -171 306 -234 l97 -48 23
25 c27 29 58 48 66 40 3 -3 -4 -20 -16 -39 -34 -55 -2 -65 52 -17 19 17 38 30
42 30 3 0 4 -13 0 -30 -9 -40 3 -38 50 10 47 48 56 50 44 8 -5 -17 -7 -34 -5
-36 12 -11 47 14 86 61 l43 52 -6 -37 c-8 -55 15 -49 55 12 18 27 36 50 39 50
4 0 9 -10 12 -22 9 -32 32 -8 47 50 17 62 28 73 36 34 4 -18 10 -32 15 -32 14
0 31 39 38 87 7 54 21 59 36 14 18 -54 32 -48 37 16 3 32 12 78 19 102 20 67
27 28 28 -148 1 -154 -5 -173 -29 -98 -12 38 -27 48 -36 23 -3 -8 2 -65 10
-127 22 -158 6 -158 -34 1 -12 47 -26 89 -30 94 -20 20 -42 -65 -40 -153 3
-115 2 -120 -10 -100 -5 9 -12 50 -16 90 -7 96 -12 110 -26 85 -6 -10 -13 -78
-15 -150 -3 -72 -9 -137 -13 -145 -8 -15 -27 79 -37 185 -12 125 -61 53 -88
-127 -9 -57 -18 -115 -22 -129 -5 -23 -6 -24 -13 -5 -13 32 -11 106 6 195 8
45 13 84 11 86 -10 10 -35 -9 -58 -45 -24 -37 -35 -68 -74 -214 -9 -32 -20
-55 -25 -52 -13 8 -4 67 27 184 13 51 22 96 18 99 -12 12 -104 -99 -136 -164
-27 -56 -34 -65 -37 -45 -5 30 23 104 60 159 41 59 13 55 -45 -7 -46 -49 -79
-107 -112 -193 -16 -43 -35 -64 -35 -39 0 28 47 155 77 209 19 35 32 67 28 70
-4 4 -38 -26 -76 -67 -38 -41 -69 -70 -69 -64 0 5 18 38 40 72 22 34 40 66 40
72 0 32 -126 -85 -159 -148 -6 -13 -16 -23 -21 -23 -15 0 6 45 55 116 25 37
45 70 45 75 0 22 -28 3 -102 -68 -61 -59 -77 -70 -65 -47 9 17 39 58 66 90 28
33 49 63 48 68 -7 22 -29 14 -98 -38 -40 -31 -75 -53 -77 -51 -3 2 18 35 47
71 81 106 34 117 -78 19 -96 -85 -92 -64 12 68 45 57 12 77 -57 36 -45 -26
-47 -10 -6 37 29 33 31 64 6 64 -7 0 -39 -18 -71 -41 -128 -89 -131 -89 -45 7
40 44 60 74 60 91 0 29 9 31 -134 -22 -54 -19 -103 -34 -109 -32 -5 1 31 31
80 64 104 72 115 83 103 103 -8 13 -21 11 -87 -14 -119 -43 -123 -42 -48 12
141 101 134 120 -25 73 -117 -35 -113 -35 -105 -21 16 25 177 109 210 109 6 0
27 -34 47 -77z m98 69 c-28 -17 -80 -17 -80 -1 0 6 21 10 48 10 31 -1 42 -3
32 -9z m2404 -21 c29 -35 44 -96 28 -112 -18 -18 -40 8 -57 65 -25 85 -16 100
29 47z m1772 2 c-4 -3 -14 2 -24 12 -16 18 -16 18 6 6 13 -6 21 -14 18 -18z
m-2684 -126 c-35 -93 -62 -132 -62 -89 1 56 87 230 97 196 1 -4 -14 -53 -35
-107z m-1443 74 c-24 -14 -106 -25 -94 -12 12 12 40 19 80 21 23 0 26 -2 14
-9z m1648 -25 c-7 -42 -28 -87 -43 -92 -31 -10 -18 98 14 116 29 17 35 12 29
-24z m906 -40 c6 -31 -6 -65 -18 -53 -10 10 -33 106 -27 113 10 10 39 -29 45
-60z m335 -95 c0 -47 -3 -94 -7 -104 -7 -18 -8 -18 -14 5 -9 33 -9 224 1 233
11 12 20 -42 20 -134z m-424 23 c26 -62 34 -113 18 -113 -11 0 -46 39 -61 67
-12 24 -14 65 -5 101 8 30 16 21 48 -55z m144 55 c22 -43 32 -78 22 -78 -10 0
-33 40 -44 78 -4 12 -3 22 2 22 5 0 14 -10 20 -22z m1708 -31 c64 -59 70 -86
15 -59 -40 19 -111 84 -111 100 0 27 43 9 96 -41z m-4290 28 c-22 -16 -107
-21 -90 -6 8 8 37 14 94 19 11 1 10 -3 -4 -13z m2319 -22 c38 -57 32 -120 -10
-89 -13 9 -20 31 -23 70 -2 31 -2 56 1 56 4 0 18 -17 32 -37z m-800 -20 c-8
-44 -37 -104 -59 -122 -14 -12 -16 -10 -16 11 0 33 19 87 42 121 28 39 42 35
33 -10z m135 -32 c0 -25 -45 -71 -70 -71 -27 0 -26 3 16 50 40 44 54 50 54 21z
m2509 5 c27 -15 60 -46 47 -46 -12 0 -85 40 -91 50 -9 14 11 12 44 -4z m-4039
-11 c0 -9 -56 -33 -94 -40 -31 -6 -38 -5 -34 6 2 8 20 19 39 26 34 12 89 17
89 8z m2427 -56 c23 -45 29 -79 15 -79 -14 0 -62 83 -62 108 0 36 22 22 47
-29z m1861 -52 c12 -11 22 -27 22 -35 0 -12 -5 -11 -27 3 -60 38 -93 67 -88
76 7 11 60 -14 93 -44z m-4218 24 c0 -26 -91 -54 -104 -32 -4 6 -6 11 -4 11 2
0 21 7 43 15 47 17 65 18 65 6z m1190 -21 c-6 -12 -14 -19 -17 -17 -2 3 1 15
7 27 6 12 14 19 17 17 2 -3 -1 -15 -7 -27z m2875 8 c14 -6 25 -15 25 -20 0 -5
-13 -2 -30 7 -45 23 -41 34 5 13z m-1859 -33 c15 -38 19 -115 5 -115 -9 0 -53
64 -63 91 -7 18 17 59 33 59 6 0 17 -16 25 -35z m-806 -10 c0 -32 -30 -91 -65
-129 -21 -23 -29 -26 -36 -15 -4 8 -5 25 -2 39 21 88 103 172 103 105z m-1322
-7 c-6 -18 -62 -38 -78 -28 -11 7 -6 13 20 24 43 19 63 20 58 4z m2232 -39 c6
-22 10 -59 8 -82 l-3 -42 -23 47 c-13 25 -26 62 -29 82 -5 32 -3 36 15 36 16
0 24 -10 32 -41z m-340 10 c50 -18 110 -59 110 -76 0 -21 -26 -26 -52 -10 -40
26 -160 50 -248 50 -91 0 -200 -23 -263 -55 -39 -20 -60 -17 -51 6 9 24 140
86 201 96 75 12 258 5 303 -11z m-1820 -24 c0 -21 -48 -51 -61 -38 -7 7 -2 17
17 32 31 25 44 27 44 6z m4025 -27 c35 -41 14 -51 -26 -12 -16 15 -29 31 -29
36 0 19 30 6 55 -24z m123 -11 c23 -21 29 -37 13 -37 -12 0 -61 47 -61 60 0
13 16 5 48 -23z m-2146 -44 c24 -28 48 -80 48 -104 0 -22 -2 -21 -36 12 -47
45 -67 82 -51 98 15 15 21 14 39 -6z m-289 -4 c20 -5 37 -16 37 -23 0 -12
-104 -24 -274 -31 -13 0 -32 33 -23 41 21 21 200 30 260 13z m2277 -52 c0 -6
-11 0 -25 13 -14 13 -25 28 -25 33 0 6 11 0 25 -13 14 -13 25 -28 25 -33z
m-2720 35 c0 -4 -22 -30 -50 -57 -27 -27 -50 -43 -50 -36 0 19 38 79 58 91 21
12 42 13 42 2z m583 -40 c23 -20 22 -42 -3 -42 -28 0 -71 44 -64 64 7 17 32 9
67 -22z m-433 4 c0 -12 -87 -76 -103 -76 -21 0 -1 34 35 60 44 33 68 38 68 16z
m2820 -21 c19 -19 29 -35 24 -35 -6 0 -25 16 -44 35 -19 19 -29 35 -24 35 6 0
25 -16 44 -35z m-1947 -17 c-11 -61 -55 -173 -94 -239 -37 -64 -149 -210 -182
-238 -22 -18 -22 0 -1 41 18 35 11 33 -54 -20 -23 -19 -45 -33 -47 -30 -3 2
23 52 58 109 34 57 80 148 102 202 22 53 44 97 49 97 5 0 6 -39 2 -90 -4 -49
-5 -90 -3 -90 16 0 126 200 151 273 10 31 26 19 19 -15z m1862 6 c21 -8 50
-64 33 -64 -16 0 -76 42 -83 58 -5 13 22 16 50 6z m-3169 -68 c-8 -20 -20 -36
-25 -36 -6 0 -11 2 -11 4 0 11 25 73 34 85 18 23 20 -11 2 -53z m609 14 c0
-11 -13 -16 -47 -18 -51 -3 -62 8 -25 26 30 15 72 11 72 -8z m112 -2 c24 -22
31 -48 12 -48 -28 0 -92 47 -83 61 10 16 47 9 71 -13z m251 -18 c25 -37 28
-50 10 -50 -15 0 -58 60 -58 79 0 21 23 7 48 -29z m2096 11 c10 -11 16 -25 14
-31 -4 -14 -48 17 -48 36 0 20 14 18 34 -5z m-2256 -33 c14 -14 16 -28 2 -28
-5 0 -14 9 -20 20 -12 22 -1 27 18 8z m2497 -38 c18 -20 11 -25 -19 -14 -17 6
-23 34 -8 34 5 0 17 -9 27 -20z m-85 -15 c20 -24 6 -28 -15 -5 -10 11 -13 20
-8 20 6 0 16 -7 23 -15z m-4919 -36 l24 -20 -25 7 c-14 4 -34 13 -45 20 -19
14 -19 14 2 14 11 0 31 -9 44 -21z m4843 -5 c11 -30 6 -37 -14 -19 -11 10 -20
22 -20 27 0 15 28 9 34 -8z m-2217 -56 c-3 -8 -6 -5 -6 6 -1 11 2 17 5 13 3
-3 4 -12 1 -19z m-2508 -57 c7 -5 10 -14 7 -20 -11 -17 -41 -13 -67 9 l-24 19
35 1 c19 0 41 -4 49 -9z m4931 -61 c0 -5 -4 -10 -9 -10 -6 0 -13 5 -16 10 -3
6 1 10 9 10 9 0 16 -4 16 -10z m-91 -13 c6 -8 8 -17 4 -20 -7 -8 -33 11 -33
24 0 13 16 11 29 -4z m-4694 -27 c10 -16 -41 -33 -79 -26 -35 7 -43 15 -29 29
10 11 101 8 108 -3z m1401 -37 c-41 -59 -66 -86 -72 -80 -9 9 15 49 54 89 44
46 54 41 18 -9z m-1269 -48 c-30 -27 -60 -31 -101 -15 -55 21 -23 35 84 38
l45 1 -28 -24z m716 -33 c-27 -36 -68 -65 -84 -59 -9 3 4 22 40 58 34 33 56
48 59 40 2 -7 -4 -25 -15 -39z m-563 9 c-18 -35 -62 -62 -94 -59 -44 4 -37 19
25 50 67 33 84 35 69 9z m1270 -61 c-35 -72 -55 -92 -44 -42 8 33 64 125 72
117 3 -3 -10 -37 -28 -75z m-840 46 c0 -22 -46 -72 -80 -86 -58 -24 -47 11 22
68 44 35 58 40 58 18z m-140 -6 c0 -16 -59 -78 -96 -100 -62 -39 -61 -15 2 49
55 55 94 77 94 51z m-170 -35 c0 -23 -54 -45 -107 -44 l-48 1 60 29 c67 32 95
36 95 14z m2031 -63 c9 -45 9 -73 -1 -132 -16 -95 -46 -177 -71 -190 -10 -6
-34 -34 -52 -63 -34 -51 -124 -143 -133 -134 -9 9 45 116 74 147 19 20 35 50
42 83 24 106 31 127 39 122 14 -8 21 22 21 86 0 33 4 59 10 59 6 0 10 -4 10
-10 0 -5 5 -10 10 -10 6 0 10 22 10 48 0 84 23 81 41 -6z m-211 -151 c-15 -63
-31 -101 -42 -101 -5 0 -7 8 -4 18 2 9 12 53 22 97 9 44 19 85 23 90 11 19 13
-58 1 -104z m-1149 -691 c35 -19 20 -30 -41 -30 -63 0 -76 9 -37 28 29 14 54
14 78 2z m585 -65 c10 -8 14 -15 7 -15 -19 0 -43 11 -43 21 0 13 14 11 36 -6z
m-667 -20 c67 -34 29 -63 -64 -49 -52 7 -54 19 -5 46 41 22 35 21 69 3z m376
-17 l20 -21 -25 8 c-14 4 -51 9 -82 12 -32 3 -58 9 -58 13 0 27 116 17 145
-12z m292 -13 c40 -17 73 -43 73 -57 0 -5 -6 -6 -12 -1 -7 4 -62 10 -122 13
l-109 5 49 27 c57 32 72 33 121 13z m-395 -25 c37 -11 93 -49 72 -50 -6 0 -28
7 -47 15 -20 8 -59 15 -87 15 -46 0 -60 7 -43 23 10 10 63 8 105 -3z m692 -6
c43 -16 -15 -40 -68 -28 l-31 7 30 13 c34 15 47 16 69 8z m-1022 -41 c10 -9
18 -24 18 -34 0 -16 -8 -18 -52 -17 -29 1 -64 -2 -78 -6 -21 -6 -19 -2 17 33
46 45 67 50 95 24z m336 -38 c25 -25 43 -48 40 -51 -3 -3 -33 4 -67 16 -72 24
-104 25 -161 5 -24 -8 -45 -14 -47 -12 -2 2 17 23 42 46 40 37 50 41 96 41 48
0 55 -3 97 -45z m395 31 c37 -15 96 -74 63 -62 -53 19 -132 18 -188 -2 -32
-11 -58 -17 -58 -13 0 17 34 53 68 71 44 23 72 25 115 6z m2812 -5 c-3 -6 -11
-11 -17 -11 -6 0 -6 6 2 15 14 17 26 13 15 -4z m-295 -10 c0 -11 -25 -21 -53
-21 -22 1 -22 1 -3 15 22 17 56 20 56 6z m370 -46 c-18 -14 -36 -23 -38 -20
-10 9 31 45 51 45 17 0 15 -4 -13 -25z m-2520 5 c34 -9 90 -52 90 -69 0 -5
-20 -3 -45 4 -25 8 -72 17 -105 21 -63 7 -77 23 -37 42 28 14 53 14 97 2z
m2224 -5 c11 -8 18 -16 15 -19 -2 -2 -31 -6 -64 -9 l-60 -6 28 25 c32 27 54
30 81 9z m-3399 -46 c19 -17 33 -35 30 -39 -3 -4 -26 -2 -52 6 -25 8 -61 14
-79 14 -46 0 -52 18 -12 35 50 21 74 18 113 -16z m3777 10 c-18 -12 -36 -18
-40 -14 -10 10 28 35 52 35 17 0 15 -4 -12 -21z m-2919 -25 c43 -22 66 -43 83
-77 22 -41 9 -50 -39 -25 -53 27 -140 28 -194 1 -21 -10 -49 -36 -63 -57 l-25
-39 -3 46 c-4 63 20 111 72 142 49 30 121 33 169 9z m-509 -4 c28 -10 86 -93
86 -122 0 -23 -3 -23 -48 7 -61 40 -128 47 -224 20 -41 -11 -35 6 22 59 43 41
54 46 94 46 25 0 56 -4 70 -10z m-430 -41 c31 -24 33 -39 6 -39 -13 0 -20 -7
-20 -20 0 -11 -2 -20 -5 -20 -15 0 -135 53 -135 60 0 11 70 39 101 39 15 1 38
-8 53 -20z m1290 15 c20 -8 21 -34 2 -34 -7 0 -39 -11 -70 -25 -31 -14 -59
-25 -61 -25 -13 0 -2 22 29 54 33 35 63 44 100 30z m266 -3 c0 -12 -20 -25
-27 -18 -7 7 6 27 18 27 5 0 9 -4 9 -9z m2752 -10 c41 -33 112 -190 94 -208
-3 -3 -37 24 -75 60 -38 36 -80 68 -93 72 -42 14 -46 32 -17 69 24 31 57 33
91 7z m-279 -31 c42 -36 77 -114 84 -185 l6 -53 -76 74 c-50 49 -86 76 -107
81 -29 5 -31 8 -26 36 7 36 23 56 51 67 30 13 32 12 68 -20z m-440 -20 c14
-11 35 -35 46 -53 20 -33 45 -152 35 -169 -3 -5 -38 21 -77 57 -39 37 -83 69
-99 72 -20 4 -28 11 -28 27 1 34 51 85 86 86 6 0 23 -9 37 -20z m-2636 -50
c18 -10 41 -37 53 -59 24 -48 24 -51 6 -51 -15 0 -26 -21 -26 -48 0 -33 -43
-163 -53 -159 -6 2 -27 45 -47 95 -39 96 -63 132 -88 132 -10 0 -12 7 -7 28
18 73 96 103 162 62z m-1051 -26 c43 -45 44 -64 4 -64 -44 0 -86 -24 -152 -88
-32 -30 -60 -53 -63 -50 -9 9 26 123 51 165 48 83 105 96 160 37z m515 5 c33
-36 38 -69 11 -69 -26 0 -52 -31 -107 -127 -26 -46 -50 -83 -55 -83 -11 0 -20
54 -20 129 0 37 -5 72 -11 78 -9 9 -6 20 10 46 25 40 53 55 104 56 31 1 45 -5
68 -30z m990 2 c26 -26 29 -36 29 -94 0 -70 -15 -166 -29 -180 -5 -5 -27 25
-49 66 -46 84 -88 137 -107 137 -20 0 -6 46 22 75 37 36 95 35 134 -4z m281
18 c32 -17 112 -209 87 -209 -6 0 -47 32 -91 70 -45 39 -87 70 -94 70 -21 0
-16 24 11 54 26 28 54 33 87 15z"/>
<path d="M5225 7370 c-3 -5 3 -10 14 -10 11 0 23 5 26 10 3 6 -3 10 -14 10
-11 0 -23 -4 -26 -10z"/>
<path d="M4839 7139 c-24 -22 -35 -36 -24 -30 20 9 83 71 73 71 -3 0 -25 -18
-49 -41z"/>
<path d="M4108 6589 c-20 -18 -25 -26 -13 -21 21 11 63 52 52 52 -4 0 -21 -14
-39 -31z"/>
<path d="M6187 6983 c-4 -3 -7 -11 -7 -17 0 -13 127 -82 136 -74 14 15 -27 66
-66 82 -45 18 -54 19 -63 9z"/>
<path d="M3890 6411 c-39 -21 -76 -58 -67 -67 5 -5 127 74 127 82 0 9 -28 2
-60 -15z"/>
<path d="M3388 6024 c-16 -8 -28 -17 -28 -19 0 -4 72 24 79 31 11 10 -27 2
-51 -12z"/>
<path d="M3300 5909 c-25 -12 -40 -23 -34 -26 11 -4 124 35 124 43 0 11 -50 1
-90 -17z"/>
<path d="M3463 5909 c-40 -26 -46 -53 -8 -39 35 13 75 41 75 51 0 16 -34 9
-67 -12z"/>
<path d="M3561 5836 c-35 -36 -61 -70 -58 -77 3 -9 19 2 48 33 24 26 59 53 77
59 22 7 32 17 30 28 -6 32 -35 20 -97 -43z"/>
<path d="M3684 5795 c-18 -44 -18 -75 1 -75 20 0 35 32 35 74 0 46 -17 46 -36
1z"/>
<path d="M3805 5790 c24 -69 34 -80 35 -40 0 35 -22 80 -40 80 -5 0 -3 -18 5
-40z"/>
<path d="M3604 5765 c-4 -14 -3 -29 1 -33 10 -10 35 28 28 44 -8 22 -22 16
-29 -11z"/>
<path d="M3760 5758 c0 -25 3 -29 10 -18 13 20 13 50 0 50 -5 0 -10 -15 -10
-32z"/>
<path d="M2746 5120 c-26 -33 -45 -60 -42 -60 9 0 99 110 94 115 -3 3 -26 -22
-52 -55z"/>
<path d="M3270 5000 c0 -5 19 -10 43 -10 31 0 38 3 27 10 -20 13 -70 13 -70 0z"/>
<path d="M3427 4963 c-16 -16 -4 -23 37 -23 46 0 68 13 40 24 -21 8 -69 8 -77
-1z"/>
<path d="M2974 3184 c-7 -39 5 -60 30 -51 18 7 21 39 6 68 -16 29 -28 23 -36
-17z"/>
<path d="M3044 3186 c-9 -24 7 -50 35 -54 28 -4 27 10 -3 45 -23 26 -25 27
-32 9z"/>
<path d="M2890 3160 c-26 -24 -31 -33 -20 -40 30 -19 87 37 63 61 -6 6 -22 -2
-43 -21z"/>
<path d="M3031 3029 c-36 -59 -35 -55 -16 -63 27 -10 45 6 51 46 l7 39 18 -40
c22 -49 55 -70 77 -48 14 14 12 19 -18 47 -18 17 -45 39 -60 50 l-27 19 -32
-50z"/>
<path d="M2926 3047 c-3 -12 -6 -37 -6 -54 0 -30 3 -33 30 -33 34 0 37 13 16
64 -18 43 -32 52 -40 23z"/>
<path d="M2994 2874 c-8 -57 0 -64 84 -64 70 0 80 9 62 56 l-11 29 -21 -27
c-27 -38 -41 -35 -72 12 -14 22 -28 40 -31 40 -2 0 -7 -21 -11 -46z"/>
<path d="M2824 2858 c-14 -29 -40 -68 -57 -85 -41 -44 -23 -43 90 4 108 44
113 48 113 85 l0 30 -47 -42 -48 -42 -3 51 c-2 28 -7 51 -12 51 -5 0 -21 -24
-36 -52z"/>
</g>
</svg>
