<?xml version="1.0" standalone="no"?>
<!DOCTYPE svg PUBLIC "-//W3C//DTD SVG 20010904//EN"
 "http://www.w3.org/TR/2001/REC-SVG-20010904/DTD/svg10.dtd">
<svg version="1.0" xmlns="http://www.w3.org/2000/svg"
 width="200px" height="100pxt" viewBox="0 0 1342.000000 589.000000"
 preserveAspectRatio="xMidYMid meet">

<g transform="translate(0.000000,589.000000) scale(0.100000,-0.100000)"
fill="#000000" stroke="none">
<path d="M5533 5858 c-6 -18 -15 -90 -18 -160 -7 -118 -9 -128 -29 -134 -11
-3 -33 -18 -48 -32 l-28 -26 -6 33 c-11 52 -39 63 -158 64 -119 0 -152 -13
-163 -64 -7 -34 -27 -42 -98 -37 -45 3 -49 5 -57 34 -15 58 -38 69 -152 69
-118 0 -163 -14 -172 -54 -3 -14 -7 -31 -9 -38 -2 -7 -40 -14 -95 -19 -62 -4
-98 -12 -113 -24 -40 -31 -68 -41 -200 -75 l-132 -33 -26 24 c-14 13 -33 24
-43 24 -31 0 -498 -110 -619 -146 -10 -3 -23 -19 -30 -36 -11 -27 -21 -33 -84
-49 -137 -34 -217 -82 -333 -198 l-105 -105 -240 -6 c-260 -7 -293 -14 -333
-64 -11 -15 -23 -39 -27 -55 l-6 -28 -592 -6 c-326 -4 -792 -7 -1037 -7 -245
0 -475 -3 -512 -7 l-68 -6 0 -172 0 -172 318 -7 c174 -3 671 -9 1103 -12 l786
-7 12 -33 c6 -18 30 -51 51 -73 l40 -41 172 0 c95 0 210 -3 255 -6 l82 -7 37
-54 c93 -135 281 -255 436 -278 39 -6 57 -17 106 -64 60 -57 81 -100 98 -196
7 -44 21 -68 35 -59 5 3 9 1 9 -3 0 -7 -106 -77 -202 -133 l-37 -21 -72 60
c-68 58 -154 101 -200 101 -64 0 -131 -71 -143 -152 -3 -21 -8 -53 -11 -72
l-6 -34 -312 -4 c-279 -3 -316 -5 -340 -21 -33 -21 -60 -74 -82 -156 -24 -93
-45 -141 -62 -141 -12 0 -13 9 -8 43 3 23 8 56 11 72 6 39 -8 59 -34 51 -40
-13 -141 -134 -180 -216 l-37 -80 -86 0 c-79 0 -87 -2 -107 -25 -20 -23 -28
-25 -110 -25 -94 0 -129 -13 -112 -40 7 -11 36 -15 114 -18 l106 -4 0 -54 0
-54 113 0 c85 0 118 -4 133 -15 15 -11 16 -17 6 -23 -13 -9 -460 -22 -757 -22
-88 0 -202 -5 -253 -10 -210 -22 -439 -138 -613 -310 -92 -90 -150 -173 -218
-307 -39 -79 -41 -86 -41 -178 0 -52 1 -95 3 -95 7 0 310 -79 312 -82 2 -2 -8
-46 -21 -98 -29 -114 -29 -121 -5 -185 11 -27 30 -78 42 -113 12 -35 46 -100
76 -144 29 -44 60 -95 67 -113 15 -35 50 -65 77 -65 9 0 56 -24 105 -53 49
-29 111 -66 138 -81 27 -16 65 -44 86 -62 25 -23 54 -37 86 -43 104 -20 242
-86 328 -156 38 -31 65 -45 86 -45 48 0 244 -84 339 -145 20 -13 56 -26 81
-30 72 -11 281 -83 333 -116 38 -23 60 -29 105 -29 75 0 243 -25 312 -46 47
-15 99 -17 365 -15 171 1 373 2 450 2 77 0 178 0 225 0 47 0 149 0 228 0 220
0 292 0 435 1 72 0 170 -1 217 -3 47 -1 121 1 165 7 48 5 114 5 165 0 47 -5
112 -8 145 -7 52 1 139 1 453 1 39 0 123 0 185 0 215 0 4003 1 4132 1 72 1
171 1 220 1 50 -1 156 -1 238 -1 81 0 188 0 237 0 50 0 150 0 223 0 72 0 166
-1 207 -2 41 -2 104 3 140 10 36 7 135 14 220 15 140 1 158 3 185 22 60 42
277 114 344 114 13 0 66 20 115 45 113 55 233 95 306 102 39 4 67 14 96 34 85
58 282 124 344 114 28 -5 42 0 70 20 19 15 71 45 114 67 44 22 118 64 167 94
48 30 92 54 97 54 14 0 62 59 62 76 0 8 24 61 54 117 30 56 64 129 75 162 11
33 29 81 40 106 l20 46 -25 119 c-14 65 -39 166 -55 224 -16 58 -29 113 -29
123 0 21 -57 87 -76 87 -7 0 -21 14 -30 31 -21 41 -6 59 31 35 14 -9 34 -15
44 -11 9 3 71 60 137 126 114 116 118 121 99 136 -11 8 -96 60 -190 116 -237
141 -278 168 -265 181 5 5 10 51 10 102 0 101 -2 105 -66 128 -33 11 -39 17
-36 39 2 21 -19 49 -113 147 -63 66 -119 129 -125 139 -8 16 -3 23 31 46 82
58 155 183 181 313 23 114 -27 262 -125 368 -97 105 -211 150 -356 141 -137
-8 -242 -62 -338 -174 -62 -74 -63 -74 -63 114 l0 132 -517 3 -518 3 -39 27
c-41 29 -56 27 -100 -11 -16 -14 -62 -16 -356 -19 l-337 -3 -6 46 c-4 25 -14
59 -22 75 l-16 30 -502 0 c-276 0 -526 -3 -554 -6 -50 -6 -53 -9 -63 -43 -5
-20 -10 -58 -10 -86 0 -27 -3 -60 -6 -73 l-6 -23 -473 3 c-261 2 -477 6 -481
11 -4 4 -4 10 0 15 4 4 179 9 389 12 415 5 419 6 461 63 37 50 29 228 -27 627
-26 184 -61 432 -78 550 -46 328 -46 327 -151 391 -37 23 -59 28 -156 34
l-113 7 -19 37 c-25 50 -86 104 -158 140 -161 81 -462 81 -640 0 -36 -16 -66
-29 -68 -29 -2 0 -4 33 -5 73 0 98 -16 140 -54 148 -39 9 -1443 11 -1484 3
-45 -9 -62 -49 -71 -164 -9 -119 -20 -142 -63 -138 -39 4 -43 19 -52 191 l-7
127 -42 0 c-38 0 -43 -3 -53 -32z m4437 -1948 l0 -40 -134 0 c-144 0 -146 -1
-146 -56 l0 -24 -360 0 -360 0 0 80 0 80 500 0 500 0 0 -40z m3000 -2298 c16
-16 32 -46 35 -66 9 -46 -4 -62 -87 -106 l-61 -33 -39 41 c-53 57 -52 91 6
148 55 55 101 60 146 16z m84 -292 c20 -7 26 -17 26 -39 0 -30 -22 -61 -43
-61 -25 0 -57 32 -57 55 0 13 10 31 22 39 27 19 21 18 52 6z m-117 -187 c39
-18 73 -65 73 -102 0 -35 -35 -85 -74 -106 -31 -17 -37 -17 -72 -4 -79 30
-107 120 -57 179 43 51 75 59 130 33z m-11395 -266 c67 -46 145 -92 171 -102
47 -18 50 -22 102 -124 29 -58 74 -134 99 -169 l46 -63 -30 -44 c-36 -52 -50
-55 -92 -20 -19 16 -42 25 -64 25 -59 0 -265 89 -342 148 -19 14 -53 28 -76
31 l-41 6 2 60 c1 33 3 104 6 158 l4 98 38 39 c22 22 42 40 46 40 4 0 63 -37
131 -83z m11005 -4 c65 -81 16 -193 -84 -193 -44 0 -100 50 -109 97 -20 105
128 178 193 96z m-336 -33 c24 -13 25 -57 2 -82 -21 -23 -38 -23 -63 2 -24 24
-26 53 -4 74 18 19 38 20 65 6z m-11060 -47 c-5 -10 -29 -37 -54 -61 l-44 -43
-40 41 c-31 31 -48 40 -74 40 -19 0 -41 5 -49 10 -10 7 20 10 95 11 61 0 121
5 135 9 38 12 41 11 31 -7z m10880 -64 c124 -87 243 -132 404 -155 l50 -7
-100 -34 c-55 -18 -131 -38 -168 -42 -48 -7 -78 -17 -102 -35 -18 -14 -36 -26
-39 -26 -3 0 -31 35 -62 78 -100 135 -137 157 -184 107 -22 -24 -23 -28 -16
-150 l8 -125 -44 0 c-24 0 -52 -6 -64 -13 -123 -71 -274 -126 -367 -132 -37
-2 -67 -11 -86 -24 -16 -12 -34 -21 -39 -21 -10 0 -28 39 -20 44 1 1 37 24 78
51 41 27 122 96 180 154 98 98 110 116 173 238 l68 132 107 4 c59 1 116 4 128
5 11 1 54 -21 95 -49z m-8190 4 c32 -102 130 -253 222 -347 70 -71 200 -159
301 -205 103 -46 84 -55 -108 -48 -89 3 -175 10 -192 15 -22 7 -42 6 -70 -4
-21 -7 -42 -10 -46 -6 -5 5 -24 55 -43 112 -39 116 -56 140 -96 140 -41 0 -54
-19 -94 -140 -20 -60 -40 -112 -45 -115 -4 -2 -28 2 -53 11 -37 13 -50 13 -69
3 -34 -18 -256 -24 -352 -9 -58 9 -92 9 -118 2 -29 -8 -40 -7 -48 3 -13 15 19
42 110 93 70 39 199 151 267 231 28 34 79 115 113 181 l61 120 124 0 123 0 13
-37z m2141 28 c22 -5 35 -20 63 -79 78 -163 172 -281 318 -399 61 -49 68 -58
62 -82 -14 -55 -29 -68 -76 -62 -24 3 -104 3 -179 -1 -119 -6 -294 3 -307 16
-3 2 -22 -2 -44 -9 -52 -19 -59 -10 -99 112 -36 113 -51 133 -96 133 -40 0
-55 -24 -99 -160 -15 -47 -30 -88 -34 -92 -3 -4 -26 -1 -50 6 -36 10 -54 10
-100 -1 -59 -13 -193 -16 -273 -5 l-47 7 112 58 c62 32 144 81 183 110 113 86
247 268 296 400 l21 57 161 -1 c88 -1 173 -4 188 -8z m2018 -67 c46 -106 113
-204 201 -299 l75 -80 -13 -45 c-7 -25 -20 -64 -28 -87 l-16 -42 -157 -3
c-207 -3 -336 0 -364 11 -15 5 -39 3 -68 -5 -24 -7 -47 -10 -50 -6 -3 4 -18
47 -34 95 l-28 89 65 66 c74 77 145 183 202 300 l39 82 71 0 71 0 34 -76z
m1876 68 c6 -4 31 -50 57 -102 49 -102 77 -147 145 -233 l42 -54 -40 -113
c-22 -62 -43 -116 -45 -121 -3 -4 -28 -1 -55 7 -41 12 -54 12 -72 2 -31 -18
-354 -18 -385 -1 -17 10 -30 10 -70 -2 -44 -13 -49 -13 -60 2 -7 9 -16 31 -19
50 -6 32 -1 37 120 154 133 127 194 209 251 333 19 41 40 77 47 79 20 8 72 8
84 -1z m-7706 -522 c0 -5 -7 -10 -15 -10 -8 0 -15 5 -15 10 0 6 7 10 15 10 8
0 15 -4 15 -10z m8178 -24 c37 -18 96 -44 132 -57 75 -28 54 -39 -32 -16 -43
11 -59 12 -88 1 -19 -7 -38 -13 -42 -13 -5 -1 -48 100 -48 114 0 9 10 5 78
-29z m-3025 -51 c-6 -28 -38 -42 -58 -25 -20 17 -19 25 8 38 39 19 55 15 50
-13z m1199 9 c30 -16 31 -17 13 -30 -10 -8 -22 -14 -26 -14 -12 0 -39 42 -33
52 7 11 10 10 46 -8z"/>
</g>
</svg>
